<svg xmlns="http://www.w3.org/2000/svg" width="520" height="440" viewBox="0 0 520 440" role="img" aria-label="Contributions over the last 12 months, one spoke per day">
<style>
  text{font-family:ui-sans-serif,-apple-system,"Segoe UI",Helvetica,Arial,sans-serif;fill:#1f2328}
  .m{font-size:11px;fill:#59636e;letter-spacing:.04em}
  .today{font-size:11px;font-weight:600;letter-spacing:.04em}
  .cap{font-size:12px;fill:#59636e;letter-spacing:.08em}
  .s{animation:in .9s ease-out backwards}
  @keyframes in{from{opacity:0}}
  @media (prefers-reduced-motion:reduce){.s{animation:none}}
</style>
<defs><radialGradient id="g"><stop offset="0" stop-color="#8250df" stop-opacity=".06"/><stop offset="1" stop-color="#8250df" stop-opacity="0"/></radialGradient></defs>
<circle cx="260" cy="220" r="172" fill="url(#g)"/>
<circle cx="260" cy="220" r="62" fill="none" stroke="#d1d9e0"/>
<circle cx="260" cy="220" r="178" fill="none" stroke="#d1d9e0" stroke-dasharray="1 4"/>
<line class="s" style="animation-delay:0ms" x1="273.7" y1="149.3" x2="276.5" y2="135.3" stroke="#1566db" stroke-width="1.7" stroke-linecap="round"/><circle cx="275.3" cy="147.6" r="0.9" fill="#d1d9e0"/><circle cx="276.5" cy="147.9" r="0.9" fill="#d1d9e0"/><circle cx="277.6" cy="148.1" r="0.9" fill="#d1d9e0"/><circle cx="278.8" cy="148.4" r="0.9" fill="#d1d9e0"/><circle cx="279.9" cy="148.7" r="0.9" fill="#d1d9e0"/><circle cx="281.1" cy="149.1" r="0.9" fill="#d1d9e0"/><circle cx="282.2" cy="149.4" r="0.9" fill="#d1d9e0"/><circle cx="283.4" cy="149.8" r="0.9" fill="#d1d9e0"/><circle cx="284.5" cy="150.2" r="0.9" fill="#d1d9e0"/><circle cx="285.6" cy="150.6" r="0.9" fill="#d1d9e0"/><line class="s" style="animation-delay:24ms" x1="286.0" y1="152.9" x2="293.4" y2="133.9" stroke="#1d65db" stroke-width="1.7" stroke-linecap="round"/><circle cx="287.9" cy="151.4" r="0.9" fill="#d1d9e0"/><circle cx="289.0" cy="151.9" r="0.9" fill="#d1d9e0"/><circle cx="290.1" cy="152.4" r="0.9" fill="#d1d9e0"/><circle cx="291.1" cy="152.9" r="0.9" fill="#d1d9e0"/><circle cx="292.2" cy="153.4" r="0.9" fill="#d1d9e0"/><circle cx="293.3" cy="153.9" r="0.9" fill="#d1d9e0"/><circle cx="294.4" cy="154.5" r="0.9" fill="#d1d9e0"/><circle cx="295.4" cy="155.0" r="0.9" fill="#d1d9e0"/><line class="s" style="animation-delay:44ms" x1="295.5" y1="157.3" x2="305.5" y2="139.7" stroke="#1d65db" stroke-width="1.7" stroke-linecap="round"/><circle cx="297.5" cy="156.2" r="0.9" fill="#d1d9e0"/><line class="s" style="animation-delay:48ms" x1="297.5" y1="158.5" x2="304.9" y2="146.3" stroke="#1566db" stroke-width="1.7" stroke-linecap="round"/><circle cx="299.5" cy="157.4" r="0.9" fill="#d1d9e0"/><circle cx="300.5" cy="158.1" r="0.9" fill="#d1d9e0"/><circle cx="301.5" cy="158.8" r="0.9" fill="#d1d9e0"/><circle cx="302.5" cy="159.4" r="0.9" fill="#d1d9e0"/><circle cx="303.5" cy="160.1" r="0.9" fill="#d1d9e0"/><circle cx="304.5" cy="160.8" r="0.9" fill="#d1d9e0"/><circle cx="305.4" cy="161.6" r="0.9" fill="#d1d9e0"/><circle cx="306.3" cy="162.3" r="0.9" fill="#d1d9e0"/><circle cx="307.3" cy="163.1" r="0.9" fill="#d1d9e0"/><circle cx="308.2" cy="163.8" r="0.9" fill="#d1d9e0"/><line class="s" style="animation-delay:73ms" x1="307.8" y1="166.1" x2="317.2" y2="155.4" stroke="#1566db" stroke-width="1.7" stroke-linecap="round"/><line class="s" style="animation-delay:75ms" x1="308.6" y1="166.9" x2="329.3" y2="144.4" stroke="#2962db" stroke-width="1.7" stroke-linecap="round"/><line class="s" style="animation-delay:77ms" x1="309.5" y1="167.7" x2="323.4" y2="153.0" stroke="#1d65db" stroke-width="1.7" stroke-linecap="round"/><line class="s" style="animation-delay:79ms" x1="310.3" y1="168.5" x2="324.5" y2="154.0" stroke="#1d65db" stroke-width="1.7" stroke-linecap="round"/><circle cx="312.6" cy="167.9" r="0.9" fill="#d1d9e0"/><circle cx="313.4" cy="168.8" r="0.9" fill="#d1d9e0"/><circle cx="314.2" cy="169.6" r="0.9" fill="#d1d9e0"/><circle cx="315.0" cy="170.5" r="0.9" fill="#d1d9e0"/><circle cx="315.8" cy="171.4" r="0.9" fill="#d1d9e0"/><circle cx="316.6" cy="172.3" r="0.9" fill="#d1d9e0"/><circle cx="317.4" cy="173.2" r="0.9" fill="#d1d9e0"/><circle cx="318.1" cy="174.2" r="0.9" fill="#d1d9e0"/><circle cx="318.8" cy="175.1" r="0.9" fill="#d1d9e0"/><circle cx="319.6" cy="176.1" r="0.9" fill="#d1d9e0"/><circle cx="320.3" cy="177.1" r="0.9" fill="#d1d9e0"/><line class="s" style="animation-delay:106ms" x1="319.3" y1="179.2" x2="339.5" y2="165.2" stroke="#2264db" stroke-width="1.7" stroke-linecap="round"/><line class="s" style="animation-delay:108ms" x1="320.0" y1="180.1" x2="345.4" y2="163.2" stroke="#2962db" stroke-width="1.7" stroke-linecap="round"/><circle cx="322.3" cy="180.0" r="0.9" fill="#d1d9e0"/><circle cx="322.9" cy="181.0" r="0.9" fill="#d1d9e0"/><circle cx="323.5" cy="182.1" r="0.9" fill="#d1d9e0"/><circle cx="324.1" cy="183.1" r="0.9" fill="#d1d9e0"/><line class="s" style="animation-delay:119ms" x1="323.0" y1="185.1" x2="335.5" y2="178.2" stroke="#1566db" stroke-width="1.7" stroke-linecap="round"/><line class="s" style="animation-delay:121ms" x1="323.5" y1="186.1" x2="336.1" y2="179.4" stroke="#1566db" stroke-width="1.7" stroke-linecap="round"/><circle cx="325.9" cy="186.2" r="0.9" fill="#d1d9e0"/><circle cx="326.4" cy="187.3" r="0.9" fill="#d1d9e0"/><circle cx="326.9" cy="188.4" r="0.9" fill="#d1d9e0"/><circle cx="327.4" cy="189.5" r="0.9" fill="#d1d9e0"/><circle cx="327.9" cy="190.6" r="0.9" fill="#d1d9e0"/><circle cx="328.4" cy="191.7" r="0.9" fill="#d1d9e0"/><circle cx="328.8" cy="192.8" r="0.9" fill="#d1d9e0"/><circle cx="329.2" cy="193.9" r="0.9" fill="#d1d9e0"/><circle cx="329.7" cy="195.0" r="0.9" fill="#d1d9e0"/><circle cx="330.0" cy="196.1" r="0.9" fill="#d1d9e0"/><circle cx="330.4" cy="197.3" r="0.9" fill="#d1d9e0"/><circle cx="330.8" cy="198.4" r="0.9" fill="#d1d9e0"/><circle cx="331.1" cy="199.6" r="0.9" fill="#d1d9e0"/><circle cx="331.4" cy="200.7" r="0.9" fill="#d1d9e0"/><line class="s" style="animation-delay:154ms" x1="329.8" y1="202.4" x2="343.7" y2="198.9" stroke="#1566db" stroke-width="1.7" stroke-linecap="round"/><line class="s" style="animation-delay:156ms" x1="330.1" y1="203.5" x2="349.8" y2="198.8" stroke="#1d65db" stroke-width="1.7" stroke-linecap="round"/><line class="s" style="animation-delay:158ms" x1="330.3" y1="204.6" x2="382.0" y2="193.3" stroke="#445ddc" stroke-width="1.7" stroke-linecap="round"/><line class="s" style="animation-delay:161ms" x1="330.6" y1="205.8" x2="370.6" y2="197.7" stroke="#3660dc" stroke-width="1.7" stroke-linecap="round"/><line class="s" style="animation-delay:163ms" x1="330.8" y1="206.9" x2="375.2" y2="198.7" stroke="#3b5fdc" stroke-width="1.7" stroke-linecap="round"/><line class="s" style="animation-delay:165ms" x1="331.0" y1="208.1" x2="367.1" y2="202.0" stroke="#3061dc" stroke-width="1.7" stroke-linecap="round"/><line class="s" style="animation-delay:167ms" x1="331.2" y1="209.2" x2="361.4" y2="204.6" stroke="#2962db" stroke-width="1.7" stroke-linecap="round"/><line class="s" style="animation-delay:169ms" x1="331.4" y1="210.4" x2="351.5" y2="207.6" stroke="#1d65db" stroke-width="1.7" stroke-linecap="round"/><line class="s" style="animation-delay:172ms" x1="331.5" y1="211.5" x2="367.8" y2="207.2" stroke="#3061dc" stroke-width="1.7" stroke-linecap="round"/><line class="s" style="animation-delay:174ms" x1="331.6" y1="212.7" x2="385.3" y2="207.2" stroke="#455ddc" stroke-width="1.7" stroke-linecap="round"/><line class="s" style="animation-delay:176ms" x1="331.7" y1="213.8" x2="371.2" y2="210.4" stroke="#3460dc" stroke-width="1.7" stroke-linecap="round"/><line class="s" style="animation-delay:178ms" x1="331.8" y1="215.0" x2="356.3" y2="213.3" stroke="#2264db" stroke-width="1.7" stroke-linecap="round"/><line class="s" style="animation-delay:180ms" x1="331.9" y1="216.1" x2="352.2" y2="215.1" stroke="#1d65db" stroke-width="1.7" stroke-linecap="round"/><line class="s" style="animation-delay:183ms" x1="331.9" y1="217.3" x2="370.1" y2="215.9" stroke="#3260dc" stroke-width="1.7" stroke-linecap="round"/><line class="s" style="animation-delay:185ms" x1="332.0" y1="218.5" x2="364.8" y2="217.8" stroke="#2c62db" stroke-width="1.7" stroke-linecap="round"/><line class="s" style="animation-delay:187ms" x1="332.0" y1="219.6" x2="362.6" y2="219.5" stroke="#2962db" stroke-width="1.7" stroke-linecap="round"/><line class="s" style="animation-delay:189ms" x1="332.0" y1="220.8" x2="346.3" y2="221.0" stroke="#1566db" stroke-width="1.7" stroke-linecap="round"/><line class="s" style="animation-delay:191ms" x1="332.0" y1="222.0" x2="378.8" y2="223.2" stroke="#3d5edc" stroke-width="1.7" stroke-linecap="round"/><line class="s" style="animation-delay:194ms" x1="331.9" y1="223.1" x2="380.3" y2="225.2" stroke="#3f5edc" stroke-width="1.7" stroke-linecap="round"/><circle cx="333.9" cy="224.4" r="0.9" fill="#d1d9e0"/><circle cx="333.8" cy="225.6" r="0.9" fill="#d1d9e0"/><line class="s" style="animation-delay:200ms" x1="331.7" y1="226.6" x2="345.9" y2="227.9" stroke="#1566db" stroke-width="1.7" stroke-linecap="round"/><circle cx="333.6" cy="228.0" r="0.9" fill="#d1d9e0"/><circle cx="333.4" cy="229.2" r="0.9" fill="#d1d9e0"/><circle cx="333.3" cy="230.4" r="0.9" fill="#d1d9e0"/><line class="s" style="animation-delay:209ms" x1="331.1" y1="231.2" x2="358.7" y2="235.6" stroke="#2663db" stroke-width="1.7" stroke-linecap="round"/><line class="s" style="animation-delay:211ms" x1="330.9" y1="232.4" x2="345.0" y2="234.8" stroke="#1566db" stroke-width="1.7" stroke-linecap="round"/><line class="s" style="animation-delay:213ms" x1="330.7" y1="233.5" x2="350.7" y2="237.3" stroke="#1d65db" stroke-width="1.7" stroke-linecap="round"/><line class="s" style="animation-delay:216ms" x1="330.5" y1="234.7" x2="350.4" y2="238.8" stroke="#1d65db" stroke-width="1.7" stroke-linecap="round"/><circle cx="332.2" cy="236.2" r="0.9" fill="#d1d9e0"/><circle cx="331.9" cy="237.4" r="0.9" fill="#d1d9e0"/><circle cx="331.6" cy="238.6" r="0.9" fill="#d1d9e0"/><circle cx="331.3" cy="239.7" r="0.9" fill="#d1d9e0"/><circle cx="331.0" cy="240.9" r="0.9" fill="#d1d9e0"/><circle cx="330.6" cy="242.0" r="0.9" fill="#d1d9e0"/><circle cx="330.3" cy="243.2" r="0.9" fill="#d1d9e0"/><circle cx="329.9" cy="244.3" r="0.9" fill="#d1d9e0"/><circle cx="329.5" cy="245.4" r="0.9" fill="#d1d9e0"/><line class="s" style="animation-delay:238ms" x1="327.2" y1="245.8" x2="364.2" y2="260.0" stroke="#3460dc" stroke-width="1.7" stroke-linecap="round"/><line class="s" style="animation-delay:240ms" x1="326.8" y1="246.9" x2="375.9" y2="266.7" stroke="#445ddc" stroke-width="1.7" stroke-linecap="round"/><line class="s" style="animation-delay:242ms" x1="326.3" y1="248.0" x2="349.0" y2="257.5" stroke="#2264db" stroke-width="1.7" stroke-linecap="round"/><line class="s" style="animation-delay:244ms" x1="325.9" y1="249.0" x2="369.5" y2="268.3" stroke="#3e5edc" stroke-width="1.7" stroke-linecap="round"/><line class="s" style="animation-delay:246ms" x1="325.4" y1="250.1" x2="358.6" y2="265.4" stroke="#3061dc" stroke-width="1.7" stroke-linecap="round"/><line class="s" style="animation-delay:249ms" x1="324.9" y1="251.2" x2="373.6" y2="274.5" stroke="#455ddc" stroke-width="1.7" stroke-linecap="round"/><line class="s" style="animation-delay:251ms" x1="324.4" y1="252.2" x2="360.9" y2="270.5" stroke="#3660dc" stroke-width="1.7" stroke-linecap="round"/><line class="s" style="animation-delay:253ms" x1="323.9" y1="253.2" x2="375.6" y2="280.2" stroke="#4b5bdd" stroke-width="1.7" stroke-linecap="round"/><line class="s" style="animation-delay:255ms" x1="323.3" y1="254.3" x2="361.3" y2="274.8" stroke="#385fdc" stroke-width="1.7" stroke-linecap="round"/><line class="s" style="animation-delay:257ms" x1="322.8" y1="255.3" x2="354.7" y2="273.2" stroke="#3061dc" stroke-width="1.7" stroke-linecap="round"/><line class="s" style="animation-delay:260ms" x1="322.2" y1="256.3" x2="362.7" y2="279.9" stroke="#3d5edc" stroke-width="1.7" stroke-linecap="round"/><line class="s" style="animation-delay:262ms" x1="321.6" y1="257.3" x2="347.7" y2="273.1" stroke="#2962db" stroke-width="1.7" stroke-linecap="round"/><line class="s" style="animation-delay:264ms" x1="321.0" y1="258.3" x2="356.6" y2="280.6" stroke="#375fdc" stroke-width="1.7" stroke-linecap="round"/><circle cx="322.0" cy="260.4" r="0.9" fill="#d1d9e0"/><circle cx="321.4" cy="261.4" r="0.9" fill="#d1d9e0"/><circle cx="320.7" cy="262.3" r="0.9" fill="#d1d9e0"/><line class="s" style="animation-delay:273ms" x1="318.4" y1="262.1" x2="334.8" y2="274.0" stroke="#1d65db" stroke-width="1.7" stroke-linecap="round"/><circle cx="319.3" cy="264.3" r="0.9" fill="#d1d9e0"/><circle cx="318.6" cy="265.2" r="0.9" fill="#d1d9e0"/><circle cx="317.8" cy="266.2" r="0.9" fill="#d1d9e0"/><circle cx="317.1" cy="267.1" r="0.9" fill="#d1d9e0"/><circle cx="316.3" cy="268.0" r="0.9" fill="#d1d9e0"/><circle cx="315.5" cy="268.9" r="0.9" fill="#d1d9e0"/><circle cx="314.7" cy="269.8" r="0.9" fill="#d1d9e0"/><line class="s" style="animation-delay:290ms" x1="312.5" y1="269.3" x2="322.9" y2="279.1" stroke="#1566db" stroke-width="1.7" stroke-linecap="round"/><circle cx="313.1" cy="271.6" r="0.9" fill="#d1d9e0"/><circle cx="312.2" cy="272.4" r="0.9" fill="#d1d9e0"/><circle cx="311.4" cy="273.2" r="0.9" fill="#d1d9e0"/><line class="s" style="animation-delay:299ms" x1="309.2" y1="272.6" x2="323.0" y2="287.4" stroke="#1d65db" stroke-width="1.7" stroke-linecap="round"/><line class="s" style="animation-delay:301ms" x1="308.3" y1="273.4" x2="317.9" y2="284.0" stroke="#1566db" stroke-width="1.7" stroke-linecap="round"/><circle cx="308.8" cy="275.7" r="0.9" fill="#d1d9e0"/><circle cx="307.8" cy="276.5" r="0.9" fill="#d1d9e0"/><circle cx="306.9" cy="277.2" r="0.9" fill="#d1d9e0"/><circle cx="306.0" cy="278.0" r="0.9" fill="#d1d9e0"/><line class="s" style="animation-delay:312ms" x1="303.8" y1="277.1" x2="325.1" y2="304.8" stroke="#2e61dc" stroke-width="1.7" stroke-linecap="round"/><circle cx="304.1" cy="279.4" r="0.9" fill="#d1d9e0"/><circle cx="303.1" cy="280.1" r="0.9" fill="#d1d9e0"/><circle cx="302.2" cy="280.8" r="0.9" fill="#d1d9e0"/><circle cx="301.2" cy="281.5" r="0.9" fill="#d1d9e0"/><circle cx="300.2" cy="282.2" r="0.9" fill="#d1d9e0"/><circle cx="299.2" cy="282.8" r="0.9" fill="#d1d9e0"/><line class="s" style="animation-delay:328ms" x1="297.1" y1="281.7" x2="304.5" y2="293.9" stroke="#1566db" stroke-width="1.7" stroke-linecap="round"/><circle cx="297.1" cy="284.0" r="0.9" fill="#d1d9e0"/><circle cx="296.1" cy="284.6" r="0.9" fill="#d1d9e0"/><line class="s" style="animation-delay:334ms" x1="294.1" y1="283.4" x2="305.7" y2="305.1" stroke="#2264db" stroke-width="1.7" stroke-linecap="round"/><line class="s" style="animation-delay:337ms" x1="293.0" y1="284.0" x2="299.6" y2="296.7" stroke="#1566db" stroke-width="1.7" stroke-linecap="round"/><line class="s" style="animation-delay:339ms" x1="292.0" y1="284.5" x2="306.6" y2="313.9" stroke="#2c62db" stroke-width="1.7" stroke-linecap="round"/><line class="s" style="animation-delay:341ms" x1="291.0" y1="285.0" x2="305.9" y2="316.5" stroke="#2e61dc" stroke-width="1.7" stroke-linecap="round"/><line class="s" style="animation-delay:343ms" x1="289.9" y1="285.5" x2="295.8" y2="298.5" stroke="#1566db" stroke-width="1.7" stroke-linecap="round"/><circle cx="289.6" cy="287.8" r="0.9" fill="#d1d9e0"/><circle cx="288.5" cy="288.3" r="0.9" fill="#d1d9e0"/><line class="s" style="animation-delay:350ms" x1="286.7" y1="286.9" x2="301.8" y2="324.8" stroke="#3660dc" stroke-width="1.7" stroke-linecap="round"/><line class="s" style="animation-delay:352ms" x1="285.6" y1="287.3" x2="290.7" y2="300.6" stroke="#1566db" stroke-width="1.7" stroke-linecap="round"/><circle cx="285.2" cy="289.6" r="0.9" fill="#d1d9e0"/><circle cx="284.1" cy="290.0" r="0.9" fill="#d1d9e0"/><circle cx="282.9" cy="290.4" r="0.9" fill="#d1d9e0"/><line class="s" style="animation-delay:361ms" x1="281.2" y1="288.8" x2="287.2" y2="308.2" stroke="#1d65db" stroke-width="1.7" stroke-linecap="round"/><line class="s" style="animation-delay:363ms" x1="280.1" y1="289.1" x2="291.5" y2="328.4" stroke="#3660dc" stroke-width="1.7" stroke-linecap="round"/><line class="s" style="animation-delay:365ms" x1="279.0" y1="289.5" x2="282.7" y2="303.2" stroke="#1566db" stroke-width="1.7" stroke-linecap="round"/><line class="s" style="animation-delay:367ms" x1="277.8" y1="289.8" x2="281.4" y2="303.6" stroke="#1566db" stroke-width="1.7" stroke-linecap="round"/><circle cx="277.2" cy="292.0" r="0.9" fill="#d1d9e0"/><circle cx="276.0" cy="292.2" r="0.9" fill="#d1d9e0"/><circle cx="274.8" cy="292.5" r="0.9" fill="#d1d9e0"/><circle cx="273.7" cy="292.7" r="0.9" fill="#d1d9e0"/><circle cx="272.5" cy="292.9" r="0.9" fill="#d1d9e0"/><line class="s" style="animation-delay:381ms" x1="271.0" y1="291.2" x2="273.2" y2="305.3" stroke="#1566db" stroke-width="1.7" stroke-linecap="round"/><circle cx="270.1" cy="293.3" r="0.9" fill="#d1d9e0"/><circle cx="268.9" cy="293.5" r="0.9" fill="#d1d9e0"/><line class="s" style="animation-delay:387ms" x1="267.6" y1="291.6" x2="269.0" y2="305.8" stroke="#1566db" stroke-width="1.7" stroke-linecap="round"/><line class="s" style="animation-delay:389ms" x1="266.4" y1="291.7" x2="270.1" y2="333.6" stroke="#375fdc" stroke-width="1.7" stroke-linecap="round"/><circle cx="265.4" cy="293.8" r="0.9" fill="#d1d9e0"/><circle cx="264.2" cy="293.9" r="0.9" fill="#d1d9e0"/><circle cx="263.0" cy="293.9" r="0.9" fill="#d1d9e0"/><circle cx="261.8" cy="294.0" r="0.9" fill="#d1d9e0"/><circle cx="260.6" cy="294.0" r="0.9" fill="#d1d9e0"/><circle cx="259.4" cy="294.0" r="0.9" fill="#d1d9e0"/><circle cx="258.2" cy="294.0" r="0.9" fill="#d1d9e0"/><circle cx="257.0" cy="293.9" r="0.9" fill="#d1d9e0"/><circle cx="255.8" cy="293.9" r="0.9" fill="#d1d9e0"/><circle cx="254.6" cy="293.8" r="0.9" fill="#d1d9e0"/><circle cx="253.4" cy="293.7" r="0.9" fill="#d1d9e0"/><circle cx="252.2" cy="293.6" r="0.9" fill="#d1d9e0"/><line class="s" style="animation-delay:418ms" x1="251.3" y1="291.5" x2="247.6" y2="321.8" stroke="#2962db" stroke-width="1.7" stroke-linecap="round"/><circle cx="249.9" cy="293.3" r="0.9" fill="#d1d9e0"/><circle cx="248.7" cy="293.1" r="0.9" fill="#d1d9e0"/><line class="s" style="animation-delay:425ms" x1="247.8" y1="291.0" x2="243.7" y2="315.2" stroke="#2264db" stroke-width="1.7" stroke-linecap="round"/><line class="s" style="animation-delay:427ms" x1="246.7" y1="290.8" x2="244.1" y2="304.8" stroke="#1566db" stroke-width="1.7" stroke-linecap="round"/><line class="s" style="animation-delay:429ms" x1="245.6" y1="290.5" x2="242.7" y2="304.5" stroke="#1566db" stroke-width="1.7" stroke-linecap="round"/><line class="s" style="animation-delay:431ms" x1="244.4" y1="290.3" x2="233.8" y2="338.3" stroke="#405edc" stroke-width="1.7" stroke-linecap="round"/><circle cx="242.8" cy="292.0" r="0.9" fill="#d1d9e0"/><circle cx="241.7" cy="291.7" r="0.9" fill="#d1d9e0"/><circle cx="240.5" cy="291.4" r="0.9" fill="#d1d9e0"/><circle cx="239.3" cy="291.1" r="0.9" fill="#d1d9e0"/><circle cx="238.2" cy="290.7" r="0.9" fill="#d1d9e0"/><line class="s" style="animation-delay:444ms" x1="237.7" y1="288.5" x2="233.3" y2="302.0" stroke="#1566db" stroke-width="1.7" stroke-linecap="round"/><circle cx="235.9" cy="290.0" r="0.9" fill="#d1d9e0"/><line class="s" style="animation-delay:449ms" x1="235.5" y1="287.7" x2="230.6" y2="301.1" stroke="#1566db" stroke-width="1.7" stroke-linecap="round"/><line class="s" style="animation-delay:451ms" x1="234.4" y1="287.3" x2="225.7" y2="310.3" stroke="#2264db" stroke-width="1.7" stroke-linecap="round"/><circle cx="232.6" cy="288.7" r="0.9" fill="#d1d9e0"/><line class="s" style="animation-delay:455ms" x1="232.2" y1="286.4" x2="226.7" y2="299.6" stroke="#1566db" stroke-width="1.7" stroke-linecap="round"/><line class="s" style="animation-delay:458ms" x1="231.2" y1="286.0" x2="220.0" y2="311.5" stroke="#2663db" stroke-width="1.7" stroke-linecap="round"/><line class="s" style="animation-delay:460ms" x1="230.1" y1="285.5" x2="221.7" y2="304.0" stroke="#1d65db" stroke-width="1.7" stroke-linecap="round"/><circle cx="228.2" cy="286.8" r="0.9" fill="#d1d9e0"/><line class="s" style="animation-delay:464ms" x1="228.0" y1="284.5" x2="221.6" y2="297.3" stroke="#1566db" stroke-width="1.7" stroke-linecap="round"/><circle cx="226.0" cy="285.7" r="0.9" fill="#d1d9e0"/><circle cx="225.0" cy="285.2" r="0.9" fill="#d1d9e0"/><circle cx="223.9" cy="284.6" r="0.9" fill="#d1d9e0"/><line class="s" style="animation-delay:473ms" x1="223.9" y1="282.3" x2="211.6" y2="303.5" stroke="#2264db" stroke-width="1.7" stroke-linecap="round"/><line class="s" style="animation-delay:475ms" x1="222.9" y1="281.7" x2="199.6" y2="320.4" stroke="#3b5fdc" stroke-width="1.7" stroke-linecap="round"/><line class="s" style="animation-delay:477ms" x1="221.9" y1="281.1" x2="214.3" y2="293.2" stroke="#1566db" stroke-width="1.7" stroke-linecap="round"/><line class="s" style="animation-delay:480ms" x1="220.9" y1="280.5" x2="200.2" y2="312.5" stroke="#3260dc" stroke-width="1.7" stroke-linecap="round"/><line class="s" style="animation-delay:482ms" x1="219.9" y1="279.8" x2="202.9" y2="305.2" stroke="#2962db" stroke-width="1.7" stroke-linecap="round"/><line class="s" style="animation-delay:484ms" x1="219.0" y1="279.2" x2="200.3" y2="306.2" stroke="#2c62db" stroke-width="1.7" stroke-linecap="round"/><line class="s" style="animation-delay:486ms" x1="218.0" y1="278.5" x2="200.2" y2="303.4" stroke="#2962db" stroke-width="1.7" stroke-linecap="round"/><line class="s" style="animation-delay:488ms" x1="217.1" y1="277.8" x2="198.9" y2="302.4" stroke="#2962db" stroke-width="1.7" stroke-linecap="round"/><circle cx="214.9" cy="278.7" r="0.9" fill="#d1d9e0"/><line class="s" style="animation-delay:493ms" x1="215.2" y1="276.4" x2="197.9" y2="298.2" stroke="#2663db" stroke-width="1.7" stroke-linecap="round"/><line class="s" style="animation-delay:495ms" x1="214.3" y1="275.7" x2="205.3" y2="286.7" stroke="#1566db" stroke-width="1.7" stroke-linecap="round"/><circle cx="212.2" cy="276.5" r="0.9" fill="#d1d9e0"/><circle cx="211.2" cy="275.7" r="0.9" fill="#d1d9e0"/><line class="s" style="animation-delay:502ms" x1="211.7" y1="273.4" x2="202.1" y2="284.0" stroke="#1566db" stroke-width="1.7" stroke-linecap="round"/><line class="s" style="animation-delay:504ms" x1="210.8" y1="272.6" x2="179.4" y2="306.2" stroke="#3c5edc" stroke-width="1.7" stroke-linecap="round"/><circle cx="208.6" cy="273.2" r="0.9" fill="#d1d9e0"/><circle cx="207.8" cy="272.4" r="0.9" fill="#d1d9e0"/><circle cx="206.9" cy="271.6" r="0.9" fill="#d1d9e0"/><circle cx="206.1" cy="270.7" r="0.9" fill="#d1d9e0"/><circle cx="205.3" cy="269.8" r="0.9" fill="#d1d9e0"/><line class="s" style="animation-delay:517ms" x1="206.0" y1="267.6" x2="195.3" y2="277.0" stroke="#1566db" stroke-width="1.7" stroke-linecap="round"/><circle cx="203.7" cy="268.0" r="0.9" fill="#d1d9e0"/><circle cx="202.9" cy="267.1" r="0.9" fill="#d1d9e0"/><line class="s" style="animation-delay:524ms" x1="203.7" y1="264.9" x2="192.6" y2="273.8" stroke="#1566db" stroke-width="1.7" stroke-linecap="round"/><circle cx="201.4" cy="265.2" r="0.9" fill="#d1d9e0"/><circle cx="200.7" cy="264.3" r="0.9" fill="#d1d9e0"/><circle cx="200.0" cy="263.3" r="0.9" fill="#d1d9e0"/><circle cx="199.3" cy="262.3" r="0.9" fill="#d1d9e0"/><circle cx="198.6" cy="261.4" r="0.9" fill="#d1d9e0"/><circle cx="198.0" cy="260.4" r="0.9" fill="#d1d9e0"/><circle cx="197.3" cy="259.3" r="0.9" fill="#d1d9e0"/><circle cx="196.7" cy="258.3" r="0.9" fill="#d1d9e0"/><circle cx="196.1" cy="257.3" r="0.9" fill="#d1d9e0"/><circle cx="195.5" cy="256.3" r="0.9" fill="#d1d9e0"/><circle cx="194.9" cy="255.2" r="0.9" fill="#d1d9e0"/><circle cx="194.4" cy="254.2" r="0.9" fill="#d1d9e0"/><circle cx="193.8" cy="253.1" r="0.9" fill="#d1d9e0"/><circle cx="193.3" cy="252.0" r="0.9" fill="#d1d9e0"/><circle cx="192.8" cy="250.9" r="0.9" fill="#d1d9e0"/><circle cx="192.3" cy="249.8" r="0.9" fill="#d1d9e0"/><line class="s" style="animation-delay:561ms" x1="193.7" y1="248.0" x2="175.0" y2="255.9" stroke="#1d65db" stroke-width="1.7" stroke-linecap="round"/><line class="s" style="animation-delay:563ms" x1="193.2" y1="246.9" x2="170.4" y2="256.1" stroke="#2264db" stroke-width="1.7" stroke-linecap="round"/><circle cx="190.9" cy="246.5" r="0.9" fill="#d1d9e0"/><line class="s" style="animation-delay:568ms" x1="192.4" y1="244.7" x2="158.0" y2="257.3" stroke="#3061dc" stroke-width="1.7" stroke-linecap="round"/><circle cx="190.1" cy="244.3" r="0.9" fill="#d1d9e0"/><line class="s" style="animation-delay:572ms" x1="191.6" y1="242.5" x2="156.9" y2="254.0" stroke="#3061dc" stroke-width="1.7" stroke-linecap="round"/><line class="s" style="animation-delay:574ms" x1="191.3" y1="241.4" x2="151.1" y2="253.9" stroke="#375fdc" stroke-width="1.7" stroke-linecap="round"/><line class="s" style="animation-delay:576ms" x1="190.9" y1="240.3" x2="155.8" y2="250.6" stroke="#3061dc" stroke-width="1.7" stroke-linecap="round"/><line class="s" style="animation-delay:579ms" x1="190.6" y1="239.2" x2="158.9" y2="247.9" stroke="#2c62db" stroke-width="1.7" stroke-linecap="round"/><line class="s" style="animation-delay:581ms" x1="190.3" y1="238.1" x2="154.9" y2="247.2" stroke="#3061dc" stroke-width="1.7" stroke-linecap="round"/><circle cx="188.1" cy="237.4" r="0.9" fill="#d1d9e0"/><line class="s" style="animation-delay:585ms" x1="189.8" y1="235.8" x2="148.7" y2="245.0" stroke="#375fdc" stroke-width="1.7" stroke-linecap="round"/><line class="s" style="animation-delay:587ms" x1="189.5" y1="234.7" x2="132.8" y2="246.5" stroke="#4a5cdd" stroke-width="1.7" stroke-linecap="round"/><line class="s" style="animation-delay:590ms" x1="189.3" y1="233.5" x2="122.1" y2="246.4" stroke="#5759dd" stroke-width="1.7" stroke-linecap="round"/><line class="s" style="animation-delay:592ms" x1="189.1" y1="232.4" x2="124.8" y2="243.6" stroke="#535add" stroke-width="1.7" stroke-linecap="round"/><line class="s" style="animation-delay:594ms" x1="188.9" y1="231.2" x2="135.1" y2="239.7" stroke="#465cdd" stroke-width="1.7" stroke-linecap="round"/><line class="s" style="animation-delay:596ms" x1="188.7" y1="230.1" x2="123.9" y2="239.2" stroke="#535add" stroke-width="1.7" stroke-linecap="round"/><line class="s" style="animation-delay:598ms" x1="188.6" y1="228.9" x2="116.1" y2="238.0" stroke="#5d58dd" stroke-width="1.7" stroke-linecap="round"/><line class="s" style="animation-delay:601ms" x1="188.4" y1="227.8" x2="122.2" y2="235.0" stroke="#5559dd" stroke-width="1.7" stroke-linecap="round"/><line class="s" style="animation-delay:603ms" x1="188.3" y1="226.6" x2="122.0" y2="232.7" stroke="#5559dd" stroke-width="1.7" stroke-linecap="round"/><line class="s" style="animation-delay:605ms" x1="188.2" y1="225.5" x2="123.2" y2="230.4" stroke="#535add" stroke-width="1.7" stroke-linecap="round"/><line class="s" style="animation-delay:607ms" x1="188.1" y1="224.3" x2="131.1" y2="227.7" stroke="#495cdd" stroke-width="1.7" stroke-linecap="round"/><line class="s" style="animation-delay:609ms" x1="188.1" y1="223.1" x2="129.4" y2="225.7" stroke="#4b5bdd" stroke-width="1.7" stroke-linecap="round"/><line class="s" style="animation-delay:612ms" x1="188.0" y1="222.0" x2="117.1" y2="223.9" stroke="#5a58dd" stroke-width="1.7" stroke-linecap="round"/><line class="s" style="animation-delay:614ms" x1="188.0" y1="220.8" x2="129.3" y2="221.5" stroke="#4b5bdd" stroke-width="1.7" stroke-linecap="round"/><line class="s" style="animation-delay:616ms" x1="188.0" y1="219.6" x2="140.3" y2="219.4" stroke="#3e5edc" stroke-width="1.7" stroke-linecap="round"/><line class="s" style="animation-delay:618ms" x1="188.0" y1="218.5" x2="134.6" y2="217.3" stroke="#455ddc" stroke-width="1.7" stroke-linecap="round"/><circle cx="186.1" cy="217.2" r="0.9" fill="#d1d9e0"/><line class="s" style="animation-delay:623ms" x1="188.1" y1="216.1" x2="157.6" y2="214.5" stroke="#2962db" stroke-width="1.7" stroke-linecap="round"/><line class="s" style="animation-delay:625ms" x1="188.2" y1="215.0" x2="148.7" y2="212.2" stroke="#3460dc" stroke-width="1.7" stroke-linecap="round"/><circle cx="186.3" cy="213.7" r="0.9" fill="#d1d9e0"/><circle cx="186.4" cy="212.5" r="0.9" fill="#d1d9e0"/><circle cx="186.5" cy="211.3" r="0.9" fill="#d1d9e0"/><circle cx="186.7" cy="210.1" r="0.9" fill="#d1d9e0"/><line class="s" style="animation-delay:636ms" x1="188.8" y1="209.2" x2="168.7" y2="206.2" stroke="#1d65db" stroke-width="1.7" stroke-linecap="round"/><line class="s" style="animation-delay:638ms" x1="189.0" y1="208.1" x2="142.0" y2="200.1" stroke="#3e5edc" stroke-width="1.7" stroke-linecap="round"/><line class="s" style="animation-delay:640ms" x1="189.2" y1="206.9" x2="123.7" y2="194.8" stroke="#5559dd" stroke-width="1.7" stroke-linecap="round"/><line class="s" style="animation-delay:642ms" x1="189.4" y1="205.8" x2="132.2" y2="194.2" stroke="#4b5bdd" stroke-width="1.7" stroke-linecap="round"/><line class="s" style="animation-delay:645ms" x1="189.7" y1="204.6" x2="124.8" y2="190.5" stroke="#5459dd" stroke-width="1.7" stroke-linecap="round"/><line class="s" style="animation-delay:647ms" x1="189.9" y1="203.5" x2="160.1" y2="196.5" stroke="#2962db" stroke-width="1.7" stroke-linecap="round"/><line class="s" style="animation-delay:649ms" x1="190.2" y1="202.4" x2="140.6" y2="189.8" stroke="#425ddc" stroke-width="1.7" stroke-linecap="round"/><line class="s" style="animation-delay:651ms" x1="190.5" y1="201.2" x2="147.8" y2="189.7" stroke="#3a5fdc" stroke-width="1.7" stroke-linecap="round"/><line class="s" style="animation-delay:653ms" x1="190.8" y1="200.1" x2="154.1" y2="189.6" stroke="#3260dc" stroke-width="1.7" stroke-linecap="round"/><line class="s" style="animation-delay:656ms" x1="191.1" y1="199.0" x2="171.7" y2="193.1" stroke="#1d65db" stroke-width="1.7" stroke-linecap="round"/><line class="s" style="animation-delay:658ms" x1="191.5" y1="197.9" x2="172.2" y2="191.7" stroke="#1d65db" stroke-width="1.7" stroke-linecap="round"/><circle cx="190.0" cy="196.1" r="0.9" fill="#d1d9e0"/><line class="s" style="animation-delay:662ms" x1="192.2" y1="195.7" x2="161.3" y2="184.6" stroke="#2c62db" stroke-width="1.7" stroke-linecap="round"/><line class="s" style="animation-delay:664ms" x1="192.6" y1="194.6" x2="140.4" y2="174.9" stroke="#485cdd" stroke-width="1.7" stroke-linecap="round"/><line class="s" style="animation-delay:667ms" x1="193.0" y1="193.5" x2="138.1" y2="171.8" stroke="#4c5bdd" stroke-width="1.7" stroke-linecap="round"/><circle cx="191.6" cy="191.7" r="0.9" fill="#d1d9e0"/><line class="s" style="animation-delay:671ms" x1="193.9" y1="191.4" x2="158.9" y2="176.2" stroke="#3260dc" stroke-width="1.7" stroke-linecap="round"/><line class="s" style="animation-delay:673ms" x1="194.4" y1="190.3" x2="156.1" y2="172.9" stroke="#375fdc" stroke-width="1.7" stroke-linecap="round"/><line class="s" style="animation-delay:675ms" x1="194.9" y1="189.2" x2="169.7" y2="177.3" stroke="#2663db" stroke-width="1.7" stroke-linecap="round"/><line class="s" style="animation-delay:678ms" x1="195.4" y1="188.2" x2="173.4" y2="177.3" stroke="#2264db" stroke-width="1.7" stroke-linecap="round"/><line class="s" style="animation-delay:680ms" x1="195.9" y1="187.2" x2="183.2" y2="180.6" stroke="#1566db" stroke-width="1.7" stroke-linecap="round"/><line class="s" style="animation-delay:682ms" x1="196.5" y1="186.1" x2="150.8" y2="161.8" stroke="#435ddc" stroke-width="1.7" stroke-linecap="round"/><line class="s" style="animation-delay:684ms" x1="197.0" y1="185.1" x2="170.3" y2="170.3" stroke="#2962db" stroke-width="1.7" stroke-linecap="round"/><line class="s" style="animation-delay:686ms" x1="197.6" y1="184.1" x2="185.2" y2="177.0" stroke="#1566db" stroke-width="1.7" stroke-linecap="round"/><line class="s" style="animation-delay:689ms" x1="198.2" y1="183.1" x2="180.8" y2="172.7" stroke="#1d65db" stroke-width="1.7" stroke-linecap="round"/><line class="s" style="animation-delay:691ms" x1="198.8" y1="182.1" x2="164.0" y2="160.6" stroke="#3660dc" stroke-width="1.7" stroke-linecap="round"/><circle cx="197.7" cy="180.0" r="0.9" fill="#d1d9e0"/><line class="s" style="animation-delay:695ms" x1="200.0" y1="180.1" x2="183.1" y2="168.9" stroke="#1d65db" stroke-width="1.7" stroke-linecap="round"/><line class="s" style="animation-delay:697ms" x1="200.7" y1="179.2" x2="159.1" y2="150.5" stroke="#415ddc" stroke-width="1.7" stroke-linecap="round"/><line class="s" style="animation-delay:700ms" x1="201.4" y1="178.2" x2="155.5" y2="145.5" stroke="#485cdd" stroke-width="1.7" stroke-linecap="round"/><line class="s" style="animation-delay:702ms" x1="202.0" y1="177.3" x2="157.8" y2="144.7" stroke="#475cdd" stroke-width="1.7" stroke-linecap="round"/><line class="s" style="animation-delay:704ms" x1="202.7" y1="176.3" x2="176.6" y2="156.4" stroke="#2c62db" stroke-width="1.7" stroke-linecap="round"/><line class="s" style="animation-delay:706ms" x1="203.5" y1="175.4" x2="152.6" y2="135.3" stroke="#525add" stroke-width="1.7" stroke-linecap="round"/><line class="s" style="animation-delay:708ms" x1="204.2" y1="174.5" x2="156.6" y2="135.7" stroke="#4e5bdd" stroke-width="1.7" stroke-linecap="round"/><line class="s" style="animation-delay:711ms" x1="204.9" y1="173.6" x2="164.5" y2="139.5" stroke="#445ddc" stroke-width="1.7" stroke-linecap="round"/><line class="s" style="animation-delay:713ms" x1="205.7" y1="172.7" x2="159.3" y2="132.4" stroke="#4e5bdd" stroke-width="1.7" stroke-linecap="round"/><line class="s" style="animation-delay:715ms" x1="206.5" y1="171.9" x2="166.0" y2="135.4" stroke="#465cdd" stroke-width="1.7" stroke-linecap="round"/><line class="s" style="animation-delay:717ms" x1="207.2" y1="171.0" x2="189.2" y2="154.3" stroke="#2264db" stroke-width="1.7" stroke-linecap="round"/><line class="s" style="animation-delay:719ms" x1="208.0" y1="170.2" x2="172.1" y2="135.6" stroke="#405edc" stroke-width="1.7" stroke-linecap="round"/><line class="s" style="animation-delay:722ms" x1="208.9" y1="169.3" x2="198.7" y2="159.3" stroke="#1566db" stroke-width="1.7" stroke-linecap="round"/><line class="s" style="animation-delay:724ms" x1="209.7" y1="168.5" x2="199.7" y2="158.3" stroke="#1566db" stroke-width="1.7" stroke-linecap="round"/><circle cx="209.1" cy="166.2" r="0.9" fill="#d1d9e0"/><circle cx="210.0" cy="165.4" r="0.9" fill="#d1d9e0"/><circle cx="210.9" cy="164.6" r="0.9" fill="#d1d9e0"/><circle cx="211.8" cy="163.8" r="0.9" fill="#d1d9e0"/><circle cx="212.7" cy="163.1" r="0.9" fill="#d1d9e0"/><line class="s" style="animation-delay:737ms" x1="214.9" y1="163.9" x2="175.3" y2="114.6" stroke="#515add" stroke-width="1.7" stroke-linecap="round"/><line class="s" style="animation-delay:739ms" x1="215.8" y1="163.2" x2="177.9" y2="114.4" stroke="#4f5bdd" stroke-width="1.7" stroke-linecap="round"/><line class="s" style="animation-delay:741ms" x1="216.7" y1="162.4" x2="186.8" y2="122.6" stroke="#405edc" stroke-width="1.7" stroke-linecap="round"/><line class="s" style="animation-delay:744ms" x1="217.7" y1="161.8" x2="186.0" y2="118.1" stroke="#455ddc" stroke-width="1.7" stroke-linecap="round"/><line class="s" style="animation-delay:746ms" x1="218.6" y1="161.1" x2="180.2" y2="106.4" stroke="#5559dd" stroke-width="1.7" stroke-linecap="round"/><line class="s" style="animation-delay:748ms" x1="219.6" y1="160.4" x2="177.5" y2="98.4" stroke="#5f57de" stroke-width="1.7" stroke-linecap="round"/><line class="s" style="animation-delay:750ms" x1="220.5" y1="159.8" x2="188.2" y2="110.3" stroke="#4c5bdd" stroke-width="1.7" stroke-linecap="round"/><line class="s" style="animation-delay:752ms" x1="221.5" y1="159.1" x2="188.5" y2="107.0" stroke="#4f5bdd" stroke-width="1.7" stroke-linecap="round"/><line class="s" style="animation-delay:755ms" x1="222.5" y1="158.5" x2="179.0" y2="87.2" stroke="#6955de" stroke-width="1.7" stroke-linecap="round"/><line class="s" style="animation-delay:757ms" x1="223.5" y1="157.9" x2="190.8" y2="102.3" stroke="#525add" stroke-width="1.7" stroke-linecap="round"/><line class="s" style="animation-delay:759ms" x1="224.5" y1="157.3" x2="209.5" y2="130.7" stroke="#2962db" stroke-width="1.7" stroke-linecap="round"/><circle cx="224.6" cy="155.0" r="0.9" fill="#d1d9e0"/><line class="s" style="animation-delay:763ms" x1="226.6" y1="156.2" x2="192.6" y2="91.4" stroke="#5d58dd" stroke-width="1.7" stroke-linecap="round"/><line class="s" style="animation-delay:766ms" x1="227.6" y1="155.7" x2="192.6" y2="86.2" stroke="#6257de" stroke-width="1.7" stroke-linecap="round"/><line class="s" style="animation-delay:768ms" x1="228.6" y1="155.2" x2="222.4" y2="142.3" stroke="#1566db" stroke-width="1.7" stroke-linecap="round"/><line class="s" style="animation-delay:770ms" x1="229.7" y1="154.7" x2="215.9" y2="124.9" stroke="#2c62db" stroke-width="1.7" stroke-linecap="round"/><line class="s" style="animation-delay:772ms" x1="230.8" y1="154.2" x2="213.2" y2="114.8" stroke="#385fdc" stroke-width="1.7" stroke-linecap="round"/><line class="s" style="animation-delay:774ms" x1="231.8" y1="153.7" x2="203.3" y2="86.8" stroke="#5c58dd" stroke-width="1.7" stroke-linecap="round"/><line class="s" style="animation-delay:777ms" x1="232.9" y1="153.3" x2="198.5" y2="68.7" stroke="#7353de" stroke-width="1.7" stroke-linecap="round"/><line class="s" style="animation-delay:779ms" x1="234.0" y1="152.9" x2="196.4" y2="55.9" stroke="#8250df" stroke-width="1.7" stroke-linecap="round"/><line class="s" style="animation-delay:781ms" x1="235.1" y1="152.5" x2="204.7" y2="70.2" stroke="#6e54de" stroke-width="1.7" stroke-linecap="round"/><line class="s" style="animation-delay:783ms" x1="236.2" y1="152.1" x2="213.1" y2="86.3" stroke="#5959dd" stroke-width="1.7" stroke-linecap="round"/><line class="s" style="animation-delay:785ms" x1="237.3" y1="151.7" x2="232.8" y2="138.1" stroke="#1566db" stroke-width="1.7" stroke-linecap="round"/><line class="s" style="animation-delay:788ms" x1="238.4" y1="151.3" x2="234.1" y2="137.7" stroke="#1566db" stroke-width="1.7" stroke-linecap="round"/><line class="s" style="animation-delay:790ms" x1="239.5" y1="151.0" x2="235.4" y2="137.3" stroke="#1566db" stroke-width="1.7" stroke-linecap="round"/><line class="s" style="animation-delay:792ms" x1="240.6" y1="150.7" x2="236.8" y2="136.9" stroke="#1566db" stroke-width="1.7" stroke-linecap="round"/><line class="s" style="animation-delay:794ms" x1="241.7" y1="150.4" x2="219.4" y2="65.3" stroke="#6f54de" stroke-width="1.7" stroke-linecap="round"/><line class="s" style="animation-delay:796ms" x1="242.9" y1="150.1" x2="221.0" y2="61.1" stroke="#7353de" stroke-width="1.7" stroke-linecap="round"/><line class="s" style="animation-delay:799ms" x1="244.0" y1="149.8" x2="240.8" y2="135.9" stroke="#1566db" stroke-width="1.7" stroke-linecap="round"/><circle cx="244.7" cy="147.6" r="0.9" fill="#d1d9e0"/>
<line x1="355.9" y1="73.6" x2="359.2" y2="68.6" stroke="#59636e" stroke-width="1"/><text x="364.7" y="60.2" class="m" text-anchor="middle" dominant-baseline="middle">Nov</text><line x1="413.1" y1="135.2" x2="418.3" y2="132.3" stroke="#59636e" stroke-width="1"/><text x="427.1" y="127.4" class="m" text-anchor="middle" dominant-baseline="middle">Dec</text><line x1="435.0" y1="219.1" x2="441.0" y2="219.1" stroke="#59636e" stroke-width="1"/><text x="451.0" y="219.0" class="m" text-anchor="middle" dominant-baseline="middle">Jan</text><line x1="413.9" y1="303.3" x2="419.2" y2="306.1" stroke="#59636e" stroke-width="1"/><text x="428.0" y="310.9" class="m" text-anchor="middle" dominant-baseline="middle">Feb</text><line x1="362.0" y1="362.2" x2="365.5" y2="367.1" stroke="#59636e" stroke-width="1"/><text x="371.3" y="375.2" class="m" text-anchor="middle" dominant-baseline="middle">Mar</text><line x1="281.2" y1="393.7" x2="281.9" y2="399.7" stroke="#59636e" stroke-width="1"/><text x="283.1" y="409.6" class="m" text-anchor="middle" dominant-baseline="middle">Apr</text><line x1="197.8" y1="383.6" x2="195.6" y2="389.2" stroke="#59636e" stroke-width="1"/><text x="192.1" y="398.5" class="m" text-anchor="middle" dominant-baseline="middle">May</text><line x1="126.8" y1="333.6" x2="122.3" y2="337.4" stroke="#59636e" stroke-width="1"/><text x="114.7" y="343.9" class="m" text-anchor="middle" dominant-baseline="middle">Jun</text><line x1="89.3" y1="258.4" x2="83.4" y2="259.7" stroke="#59636e" stroke-width="1"/><text x="73.7" y="261.9" class="m" text-anchor="middle" dominant-baseline="middle">Jul</text><line x1="91.8" y1="171.7" x2="86.0" y2="170.0" stroke="#59636e" stroke-width="1"/><text x="76.4" y="167.3" class="m" text-anchor="middle" dominant-baseline="middle">Aug</text><line x1="135.7" y1="96.8" x2="131.4" y2="92.6" stroke="#59636e" stroke-width="1"/><text x="124.3" y="85.6" class="m" text-anchor="middle" dominant-baseline="middle">Sep</text>
<circle cx="294.0" cy="45.3" r="2" fill="#59636e"/>
<circle cx="223.2" cy="45.8" r="3.2" fill="#8250df"/>
<text x="220.3" y="32.1" class="today" text-anchor="end" dominant-baseline="middle">today</text>
<text x="260" y="216" class="cap" text-anchor="middle">THE LAST</text>
<text x="260" y="234" class="cap" text-anchor="middle">12 MONTHS</text>
</svg>