<svg xmlns="http://www.w3.org/2000/svg" width="900" height="420" viewBox="0 0 900 420" role="img" aria-label="5,062 contributions in the last 12 months, 7,636 since 2018, longest run of active weeks 83">
<style>
  text{font-family:ui-sans-serif,-apple-system,"Segoe UI",Helvetica,Arial,sans-serif;fill:#e6edf3}
  .m{font-size:11px;fill:#8b949e;letter-spacing:.04em}
  .today{font-size:11px;font-weight:600;letter-spacing:.04em}
  .big{font-size:34px;font-weight:700;font-variant-numeric:tabular-nums}
  .cap{font-size:12px;fill:#8b949e}
  .eye{font-size:11px;fill:#8b949e;letter-spacing:.14em}
  .n{font-size:28px;font-weight:700;font-variant-numeric:tabular-nums}
  .l{font-size:13px;fill:#8b949e}
  .foot{font-size:11px;fill:#8b949e}
  .s{animation:in .9s ease-out backwards}
  @keyframes in{from{opacity:0}}
  @media (prefers-reduced-motion:reduce){.s{animation:none}}
</style>
<defs><radialGradient id="g"><stop offset="0" stop-color="#a371f7" stop-opacity=".14"/><stop offset="1" stop-color="#a371f7" stop-opacity="0"/></radialGradient></defs>
<circle cx="220" cy="212" r="168" fill="url(#g)"/>
<circle cx="220" cy="212" r="62" fill="none" stroke="#30363d"/>
<circle cx="220" cy="212" r="174" fill="none" stroke="#30363d" stroke-dasharray="1 4"/>
<circle cx="234.1" cy="139.4" r="0.9" fill="#30363d"/><circle cx="235.3" cy="139.6" r="0.9" fill="#30363d"/><line class="s" style="animation-delay:4ms" x1="236.0" y1="141.8" x2="239.1" y2="128.3" stroke="#3073ed" stroke-width="1.7" stroke-linecap="round"/><line class="s" style="animation-delay:7ms" x1="237.1" y1="142.1" x2="240.5" y2="128.6" stroke="#3073ed" stroke-width="1.7" stroke-linecap="round"/><circle cx="238.8" cy="140.4" r="0.9" fill="#30363d"/><circle cx="239.9" cy="140.7" r="0.9" fill="#30363d"/><circle cx="241.1" cy="141.1" r="0.9" fill="#30363d"/><circle cx="242.2" cy="141.4" r="0.9" fill="#30363d"/><circle cx="243.4" cy="141.8" r="0.9" fill="#30363d"/><circle cx="244.5" cy="142.2" r="0.9" fill="#30363d"/><circle cx="245.6" cy="142.6" r="0.9" fill="#30363d"/><circle cx="246.7" cy="143.0" r="0.9" fill="#30363d"/><circle cx="247.9" cy="143.4" r="0.9" fill="#30363d"/><circle cx="249.0" cy="143.9" r="0.9" fill="#30363d"/><line class="s" style="animation-delay:31ms" x1="249.2" y1="146.2" x2="257.2" y2="128.3" stroke="#3a76ee" stroke-width="1.7" stroke-linecap="round"/><circle cx="251.1" cy="144.9" r="0.9" fill="#30363d"/><circle cx="252.2" cy="145.4" r="0.9" fill="#30363d"/><circle cx="253.3" cy="145.9" r="0.9" fill="#30363d"/><circle cx="254.4" cy="146.5" r="0.9" fill="#30363d"/><circle cx="255.4" cy="147.0" r="0.9" fill="#30363d"/><circle cx="256.5" cy="147.6" r="0.9" fill="#30363d"/><circle cx="257.5" cy="148.2" r="0.9" fill="#30363d"/><circle cx="258.5" cy="148.8" r="0.9" fill="#30363d"/><line class="s" style="animation-delay:51ms" x1="258.5" y1="151.1" x2="269.0" y2="134.5" stroke="#3a76ee" stroke-width="1.7" stroke-linecap="round"/><circle cx="260.5" cy="150.1" r="0.9" fill="#30363d"/><line class="s" style="animation-delay:55ms" x1="260.4" y1="152.4" x2="268.2" y2="140.9" stroke="#3073ed" stroke-width="1.7" stroke-linecap="round"/><circle cx="262.5" cy="151.4" r="0.9" fill="#30363d"/><circle cx="263.5" cy="152.1" r="0.9" fill="#30363d"/><circle cx="264.5" cy="152.8" r="0.9" fill="#30363d"/><circle cx="265.4" cy="153.6" r="0.9" fill="#30363d"/><circle cx="266.3" cy="154.3" r="0.9" fill="#30363d"/><circle cx="267.3" cy="155.1" r="0.9" fill="#30363d"/><circle cx="268.2" cy="155.8" r="0.9" fill="#30363d"/><circle cx="269.1" cy="156.6" r="0.9" fill="#30363d"/><circle cx="270.0" cy="157.4" r="0.9" fill="#30363d"/><circle cx="270.9" cy="158.2" r="0.9" fill="#30363d"/><line class="s" style="animation-delay:79ms" x1="270.3" y1="160.5" x2="280.0" y2="150.6" stroke="#3073ed" stroke-width="1.7" stroke-linecap="round"/><line class="s" style="animation-delay:81ms" x1="271.1" y1="161.3" x2="292.1" y2="140.5" stroke="#4a7af0" stroke-width="1.7" stroke-linecap="round"/><line class="s" style="animation-delay:84ms" x1="272.0" y1="162.2" x2="286.1" y2="148.6" stroke="#3a76ee" stroke-width="1.7" stroke-linecap="round"/><line class="s" style="animation-delay:86ms" x1="272.8" y1="163.0" x2="287.2" y2="149.6" stroke="#3a76ee" stroke-width="1.7" stroke-linecap="round"/><circle cx="275.0" cy="162.5" r="0.9" fill="#30363d"/><circle cx="275.8" cy="163.4" r="0.9" fill="#30363d"/><circle cx="276.6" cy="164.3" r="0.9" fill="#30363d"/><circle cx="277.4" cy="165.2" r="0.9" fill="#30363d"/><circle cx="278.1" cy="166.2" r="0.9" fill="#30363d"/><circle cx="278.8" cy="167.1" r="0.9" fill="#30363d"/><circle cx="279.6" cy="168.1" r="0.9" fill="#30363d"/><circle cx="280.3" cy="169.1" r="0.9" fill="#30363d"/><circle cx="280.9" cy="170.0" r="0.9" fill="#30363d"/><circle cx="281.6" cy="171.0" r="0.9" fill="#30363d"/><circle cx="282.3" cy="172.0" r="0.9" fill="#30363d"/><line class="s" style="animation-delay:112ms" x1="281.2" y1="174.1" x2="301.4" y2="161.6" stroke="#4177ef" stroke-width="1.7" stroke-linecap="round"/><line class="s" style="animation-delay:114ms" x1="281.8" y1="175.1" x2="307.2" y2="159.9" stroke="#4a7af0" stroke-width="1.7" stroke-linecap="round"/><circle cx="284.1" cy="175.1" r="0.9" fill="#30363d"/><circle cx="284.7" cy="176.1" r="0.9" fill="#30363d"/><circle cx="285.3" cy="177.2" r="0.9" fill="#30363d"/><circle cx="285.9" cy="178.2" r="0.9" fill="#30363d"/><line class="s" style="animation-delay:125ms" x1="284.6" y1="180.2" x2="297.0" y2="174.1" stroke="#3073ed" stroke-width="1.7" stroke-linecap="round"/><line class="s" style="animation-delay:128ms" x1="285.1" y1="181.2" x2="297.6" y2="175.3" stroke="#3073ed" stroke-width="1.7" stroke-linecap="round"/><circle cx="287.4" cy="181.5" r="0.9" fill="#30363d"/><circle cx="287.9" cy="182.6" r="0.9" fill="#30363d"/><circle cx="288.4" cy="183.7" r="0.9" fill="#30363d"/><circle cx="288.8" cy="184.8" r="0.9" fill="#30363d"/><circle cx="289.2" cy="185.9" r="0.9" fill="#30363d"/><circle cx="289.7" cy="187.0" r="0.9" fill="#30363d"/><circle cx="290.0" cy="188.1" r="0.9" fill="#30363d"/><circle cx="290.4" cy="189.3" r="0.9" fill="#30363d"/><circle cx="290.8" cy="190.4" r="0.9" fill="#30363d"/><circle cx="291.1" cy="191.6" r="0.9" fill="#30363d"/><circle cx="291.4" cy="192.7" r="0.9" fill="#30363d"/><circle cx="291.7" cy="193.9" r="0.9" fill="#30363d"/><circle cx="292.0" cy="195.0" r="0.9" fill="#30363d"/><circle cx="292.3" cy="196.2" r="0.9" fill="#30363d"/><line class="s" style="animation-delay:161ms" x1="290.6" y1="197.8" x2="304.2" y2="195.0" stroke="#3073ed" stroke-width="1.7" stroke-linecap="round"/><line class="s" style="animation-delay:163ms" x1="290.8" y1="198.9" x2="310.1" y2="195.3" stroke="#3a76ee" stroke-width="1.7" stroke-linecap="round"/><line class="s" style="animation-delay:165ms" x1="291.0" y1="200.1" x2="341.2" y2="191.6" stroke="#6f83f5" stroke-width="1.7" stroke-linecap="round"/><line class="s" style="animation-delay:167ms" x1="291.2" y1="201.2" x2="330.1" y2="195.3" stroke="#5b7ef2" stroke-width="1.7" stroke-linecap="round"/><line class="s" style="animation-delay:169ms" x1="291.4" y1="202.4" x2="334.4" y2="196.5" stroke="#627ff3" stroke-width="1.7" stroke-linecap="round"/><line class="s" style="animation-delay:172ms" x1="291.5" y1="203.5" x2="326.5" y2="199.4" stroke="#547cf2" stroke-width="1.7" stroke-linecap="round"/><line class="s" style="animation-delay:174ms" x1="291.6" y1="204.7" x2="321.0" y2="201.7" stroke="#4a7af0" stroke-width="1.7" stroke-linecap="round"/><line class="s" style="animation-delay:176ms" x1="291.7" y1="205.8" x2="311.3" y2="204.1" stroke="#3a76ee" stroke-width="1.7" stroke-linecap="round"/><line class="s" style="animation-delay:178ms" x1="291.8" y1="207.0" x2="327.0" y2="204.5" stroke="#547cf2" stroke-width="1.7" stroke-linecap="round"/><line class="s" style="animation-delay:180ms" x1="291.9" y1="208.1" x2="343.8" y2="205.4" stroke="#7083f5" stroke-width="1.7" stroke-linecap="round"/><line class="s" style="animation-delay:183ms" x1="291.9" y1="209.3" x2="330.1" y2="207.9" stroke="#597df2" stroke-width="1.7" stroke-linecap="round"/><line class="s" style="animation-delay:185ms" x1="292.0" y1="210.5" x2="315.7" y2="210.0" stroke="#4177ef" stroke-width="1.7" stroke-linecap="round"/><line class="s" style="animation-delay:187ms" x1="292.0" y1="211.6" x2="311.6" y2="211.5" stroke="#3a76ee" stroke-width="1.7" stroke-linecap="round"/><line class="s" style="animation-delay:189ms" x1="292.0" y1="212.8" x2="328.8" y2="213.2" stroke="#577df2" stroke-width="1.7" stroke-linecap="round"/><line class="s" style="animation-delay:191ms" x1="292.0" y1="214.0" x2="323.7" y2="214.8" stroke="#4e7bf1" stroke-width="1.7" stroke-linecap="round"/><line class="s" style="animation-delay:194ms" x1="291.9" y1="215.1" x2="321.4" y2="216.4" stroke="#4a7af0" stroke-width="1.7" stroke-linecap="round"/><line class="s" style="animation-delay:196ms" x1="291.9" y1="216.3" x2="305.7" y2="217.1" stroke="#3073ed" stroke-width="1.7" stroke-linecap="round"/><line class="s" style="animation-delay:198ms" x1="291.8" y1="217.5" x2="336.8" y2="220.9" stroke="#6580f4" stroke-width="1.7" stroke-linecap="round"/><line class="s" style="animation-delay:200ms" x1="291.7" y1="218.6" x2="338.2" y2="222.9" stroke="#6781f4" stroke-width="1.7" stroke-linecap="round"/><circle cx="293.6" cy="220.0" r="0.9" fill="#30363d"/><circle cx="293.4" cy="221.2" r="0.9" fill="#30363d"/><line class="s" style="animation-delay:207ms" x1="291.3" y1="222.1" x2="305.0" y2="224.0" stroke="#3073ed" stroke-width="1.7" stroke-linecap="round"/><circle cx="293.1" cy="223.5" r="0.9" fill="#30363d"/><circle cx="292.9" cy="224.7" r="0.9" fill="#30363d"/><circle cx="292.7" cy="225.9" r="0.9" fill="#30363d"/><line class="s" style="animation-delay:216ms" x1="290.5" y1="226.7" x2="316.8" y2="232.1" stroke="#4679f0" stroke-width="1.7" stroke-linecap="round"/><line class="s" style="animation-delay:218ms" x1="290.2" y1="227.8" x2="303.8" y2="230.8" stroke="#3073ed" stroke-width="1.7" stroke-linecap="round"/><line class="s" style="animation-delay:220ms" x1="290.0" y1="228.9" x2="309.1" y2="233.6" stroke="#3a76ee" stroke-width="1.7" stroke-linecap="round"/><line class="s" style="animation-delay:222ms" x1="289.7" y1="230.1" x2="308.7" y2="235.0" stroke="#3a76ee" stroke-width="1.7" stroke-linecap="round"/><circle cx="291.3" cy="231.7" r="0.9" fill="#30363d"/><circle cx="291.0" cy="232.9" r="0.9" fill="#30363d"/><circle cx="290.6" cy="234.0" r="0.9" fill="#30363d"/><circle cx="290.3" cy="235.2" r="0.9" fill="#30363d"/><circle cx="289.9" cy="236.3" r="0.9" fill="#30363d"/><circle cx="289.5" cy="237.4" r="0.9" fill="#30363d"/><circle cx="289.1" cy="238.5" r="0.9" fill="#30363d"/><circle cx="288.6" cy="239.6" r="0.9" fill="#30363d"/><circle cx="288.2" cy="240.8" r="0.9" fill="#30363d"/><line class="s" style="animation-delay:244ms" x1="285.9" y1="241.0" x2="320.8" y2="256.4" stroke="#597df2" stroke-width="1.7" stroke-linecap="round"/><line class="s" style="animation-delay:246ms" x1="285.4" y1="242.1" x2="331.7" y2="263.4" stroke="#6f83f5" stroke-width="1.7" stroke-linecap="round"/><line class="s" style="animation-delay:249ms" x1="284.9" y1="243.2" x2="306.3" y2="253.4" stroke="#4177ef" stroke-width="1.7" stroke-linecap="round"/><line class="s" style="animation-delay:251ms" x1="284.4" y1="244.2" x2="325.5" y2="264.7" stroke="#6680f4" stroke-width="1.7" stroke-linecap="round"/><line class="s" style="animation-delay:253ms" x1="283.9" y1="245.2" x2="315.2" y2="261.5" stroke="#547cf2" stroke-width="1.7" stroke-linecap="round"/><line class="s" style="animation-delay:255ms" x1="283.3" y1="246.3" x2="329.0" y2="271.0" stroke="#7083f5" stroke-width="1.7" stroke-linecap="round"/><line class="s" style="animation-delay:257ms" x1="282.8" y1="247.3" x2="317.1" y2="266.6" stroke="#5b7ef2" stroke-width="1.7" stroke-linecap="round"/><line class="s" style="animation-delay:260ms" x1="282.2" y1="248.3" x2="330.7" y2="276.6" stroke="#7885f6" stroke-width="1.7" stroke-linecap="round"/><line class="s" style="animation-delay:262ms" x1="281.6" y1="249.3" x2="317.2" y2="270.8" stroke="#5f7ff3" stroke-width="1.7" stroke-linecap="round"/><line class="s" style="animation-delay:264ms" x1="281.0" y1="250.3" x2="310.9" y2="269.1" stroke="#547cf2" stroke-width="1.7" stroke-linecap="round"/><line class="s" style="animation-delay:266ms" x1="280.4" y1="251.3" x2="318.2" y2="275.9" stroke="#6580f4" stroke-width="1.7" stroke-linecap="round"/><line class="s" style="animation-delay:268ms" x1="279.7" y1="252.2" x2="304.2" y2="268.7" stroke="#4a7af0" stroke-width="1.7" stroke-linecap="round"/><line class="s" style="animation-delay:271ms" x1="279.0" y1="253.2" x2="312.3" y2="276.4" stroke="#5d7ef3" stroke-width="1.7" stroke-linecap="round"/><circle cx="280.0" cy="255.3" r="0.9" fill="#30363d"/><circle cx="279.3" cy="256.3" r="0.9" fill="#30363d"/><circle cx="278.6" cy="257.2" r="0.9" fill="#30363d"/><line class="s" style="animation-delay:279ms" x1="276.3" y1="256.9" x2="291.6" y2="269.2" stroke="#3a76ee" stroke-width="1.7" stroke-linecap="round"/><circle cx="277.1" cy="259.1" r="0.9" fill="#30363d"/><circle cx="276.3" cy="260.0" r="0.9" fill="#30363d"/><circle cx="275.5" cy="260.9" r="0.9" fill="#30363d"/><circle cx="274.7" cy="261.8" r="0.9" fill="#30363d"/><circle cx="273.9" cy="262.7" r="0.9" fill="#30363d"/><circle cx="273.1" cy="263.6" r="0.9" fill="#30363d"/><circle cx="272.2" cy="264.4" r="0.9" fill="#30363d"/><line class="s" style="animation-delay:297ms" x1="270.0" y1="263.8" x2="279.6" y2="273.8" stroke="#3073ed" stroke-width="1.7" stroke-linecap="round"/><circle cx="270.5" cy="266.1" r="0.9" fill="#30363d"/><circle cx="269.6" cy="266.9" r="0.9" fill="#30363d"/><circle cx="268.8" cy="267.7" r="0.9" fill="#30363d"/><line class="s" style="animation-delay:306ms" x1="266.6" y1="266.9" x2="279.3" y2="281.9" stroke="#3a76ee" stroke-width="1.7" stroke-linecap="round"/><line class="s" style="animation-delay:308ms" x1="265.7" y1="267.7" x2="274.5" y2="278.4" stroke="#3073ed" stroke-width="1.7" stroke-linecap="round"/><circle cx="266.0" cy="270.0" r="0.9" fill="#30363d"/><circle cx="265.1" cy="270.7" r="0.9" fill="#30363d"/><circle cx="264.1" cy="271.4" r="0.9" fill="#30363d"/><circle cx="263.1" cy="272.1" r="0.9" fill="#30363d"/><line class="s" style="animation-delay:319ms" x1="261.0" y1="271.2" x2="280.2" y2="298.8" stroke="#517bf1" stroke-width="1.7" stroke-linecap="round"/><circle cx="261.2" cy="273.5" r="0.9" fill="#30363d"/><circle cx="260.2" cy="274.2" r="0.9" fill="#30363d"/><circle cx="259.2" cy="274.8" r="0.9" fill="#30363d"/><circle cx="258.1" cy="275.4" r="0.9" fill="#30363d"/><circle cx="257.1" cy="276.0" r="0.9" fill="#30363d"/><circle cx="256.1" cy="276.6" r="0.9" fill="#30363d"/><line class="s" style="animation-delay:334ms" x1="254.1" y1="275.4" x2="260.6" y2="287.6" stroke="#3073ed" stroke-width="1.7" stroke-linecap="round"/><circle cx="254.0" cy="277.7" r="0.9" fill="#30363d"/><circle cx="252.9" cy="278.3" r="0.9" fill="#30363d"/><line class="s" style="animation-delay:341ms" x1="251.0" y1="277.0" x2="261.2" y2="298.4" stroke="#4177ef" stroke-width="1.7" stroke-linecap="round"/><line class="s" style="animation-delay:343ms" x1="249.9" y1="277.5" x2="255.7" y2="290.1" stroke="#3073ed" stroke-width="1.7" stroke-linecap="round"/><line class="s" style="animation-delay:345ms" x1="248.8" y1="278.0" x2="261.5" y2="307.0" stroke="#4e7bf1" stroke-width="1.7" stroke-linecap="round"/><line class="s" style="animation-delay:348ms" x1="247.8" y1="278.4" x2="260.7" y2="309.4" stroke="#517bf1" stroke-width="1.7" stroke-linecap="round"/><line class="s" style="animation-delay:350ms" x1="246.7" y1="278.9" x2="251.8" y2="291.8" stroke="#3073ed" stroke-width="1.7" stroke-linecap="round"/><circle cx="246.3" cy="281.2" r="0.9" fill="#30363d"/><circle cx="245.2" cy="281.6" r="0.9" fill="#30363d"/><line class="s" style="animation-delay:356ms" x1="243.4" y1="280.1" x2="256.2" y2="317.3" stroke="#5b7ef2" stroke-width="1.7" stroke-linecap="round"/><line class="s" style="animation-delay:359ms" x1="242.3" y1="280.5" x2="246.6" y2="293.6" stroke="#3073ed" stroke-width="1.7" stroke-linecap="round"/><circle cx="241.8" cy="282.7" r="0.9" fill="#30363d"/><circle cx="240.7" cy="283.1" r="0.9" fill="#30363d"/><circle cx="239.5" cy="283.4" r="0.9" fill="#30363d"/><line class="s" style="animation-delay:367ms" x1="237.8" y1="281.8" x2="242.7" y2="300.8" stroke="#3a76ee" stroke-width="1.7" stroke-linecap="round"/><line class="s" style="animation-delay:370ms" x1="236.7" y1="282.0" x2="245.9" y2="320.3" stroke="#5b7ef2" stroke-width="1.7" stroke-linecap="round"/><line class="s" style="animation-delay:372ms" x1="235.6" y1="282.3" x2="238.6" y2="295.8" stroke="#3073ed" stroke-width="1.7" stroke-linecap="round"/><line class="s" style="animation-delay:374ms" x1="234.4" y1="282.5" x2="237.2" y2="296.1" stroke="#3073ed" stroke-width="1.7" stroke-linecap="round"/><circle cx="233.7" cy="284.7" r="0.9" fill="#30363d"/><circle cx="232.5" cy="284.9" r="0.9" fill="#30363d"/><circle cx="231.3" cy="285.1" r="0.9" fill="#30363d"/><circle cx="230.1" cy="285.3" r="0.9" fill="#30363d"/><circle cx="228.9" cy="285.5" r="0.9" fill="#30363d"/><line class="s" style="animation-delay:387ms" x1="227.6" y1="283.6" x2="229.0" y2="297.4" stroke="#3073ed" stroke-width="1.7" stroke-linecap="round"/><circle cx="226.6" cy="285.7" r="0.9" fill="#30363d"/><circle cx="225.4" cy="285.8" r="0.9" fill="#30363d"/><line class="s" style="animation-delay:394ms" x1="224.1" y1="283.9" x2="224.9" y2="297.7" stroke="#3073ed" stroke-width="1.7" stroke-linecap="round"/><line class="s" style="animation-delay:396ms" x1="222.9" y1="283.9" x2="224.5" y2="324.4" stroke="#5d7ef3" stroke-width="1.7" stroke-linecap="round"/><circle cx="221.8" cy="286.0" r="0.9" fill="#30363d"/><circle cx="220.6" cy="286.0" r="0.9" fill="#30363d"/><circle cx="219.4" cy="286.0" r="0.9" fill="#30363d"/><circle cx="218.2" cy="286.0" r="0.9" fill="#30363d"/><circle cx="217.0" cy="285.9" r="0.9" fill="#30363d"/><circle cx="215.8" cy="285.9" r="0.9" fill="#30363d"/><circle cx="214.6" cy="285.8" r="0.9" fill="#30363d"/><circle cx="213.4" cy="285.7" r="0.9" fill="#30363d"/><circle cx="212.2" cy="285.6" r="0.9" fill="#30363d"/><circle cx="211.1" cy="285.5" r="0.9" fill="#30363d"/><circle cx="209.9" cy="285.3" r="0.9" fill="#30363d"/><circle cx="208.7" cy="285.1" r="0.9" fill="#30363d"/><line class="s" style="animation-delay:425ms" x1="207.8" y1="283.0" x2="202.9" y2="312.1" stroke="#4a7af0" stroke-width="1.7" stroke-linecap="round"/><circle cx="206.3" cy="284.7" r="0.9" fill="#30363d"/><circle cx="205.2" cy="284.5" r="0.9" fill="#30363d"/><line class="s" style="animation-delay:431ms" x1="204.4" y1="282.3" x2="199.3" y2="305.5" stroke="#4177ef" stroke-width="1.7" stroke-linecap="round"/><line class="s" style="animation-delay:433ms" x1="203.3" y1="282.0" x2="200.1" y2="295.5" stroke="#3073ed" stroke-width="1.7" stroke-linecap="round"/><line class="s" style="animation-delay:436ms" x1="202.2" y1="281.8" x2="198.7" y2="295.2" stroke="#3073ed" stroke-width="1.7" stroke-linecap="round"/><line class="s" style="animation-delay:438ms" x1="201.0" y1="281.5" x2="188.5" y2="327.1" stroke="#6981f4" stroke-width="1.7" stroke-linecap="round"/><circle cx="199.3" cy="283.1" r="0.9" fill="#30363d"/><circle cx="198.2" cy="282.7" r="0.9" fill="#30363d"/><circle cx="197.1" cy="282.4" r="0.9" fill="#30363d"/><circle cx="195.9" cy="282.0" r="0.9" fill="#30363d"/><circle cx="194.8" cy="281.6" r="0.9" fill="#30363d"/><line class="s" style="animation-delay:451ms" x1="194.4" y1="279.3" x2="189.5" y2="292.3" stroke="#3073ed" stroke-width="1.7" stroke-linecap="round"/><circle cx="192.6" cy="280.7" r="0.9" fill="#30363d"/><line class="s" style="animation-delay:455ms" x1="192.2" y1="278.4" x2="186.9" y2="291.2" stroke="#3073ed" stroke-width="1.7" stroke-linecap="round"/><line class="s" style="animation-delay:458ms" x1="191.2" y1="278.0" x2="181.6" y2="299.7" stroke="#4177ef" stroke-width="1.7" stroke-linecap="round"/><circle cx="189.3" cy="279.3" r="0.9" fill="#30363d"/><line class="s" style="animation-delay:462ms" x1="189.0" y1="277.0" x2="183.1" y2="289.5" stroke="#3073ed" stroke-width="1.7" stroke-linecap="round"/><line class="s" style="animation-delay:464ms" x1="188.0" y1="276.5" x2="176.0" y2="300.6" stroke="#4679f0" stroke-width="1.7" stroke-linecap="round"/><line class="s" style="animation-delay:466ms" x1="187.0" y1="276.0" x2="177.9" y2="293.4" stroke="#3a76ee" stroke-width="1.7" stroke-linecap="round"/><circle cx="185.0" cy="277.2" r="0.9" fill="#30363d"/><line class="s" style="animation-delay:471ms" x1="184.9" y1="274.9" x2="178.1" y2="287.0" stroke="#3073ed" stroke-width="1.7" stroke-linecap="round"/><circle cx="182.9" cy="276.0" r="0.9" fill="#30363d"/><circle cx="181.9" cy="275.4" r="0.9" fill="#30363d"/><circle cx="180.8" cy="274.8" r="0.9" fill="#30363d"/><line class="s" style="animation-delay:480ms" x1="180.9" y1="272.5" x2="168.0" y2="292.4" stroke="#4177ef" stroke-width="1.7" stroke-linecap="round"/><line class="s" style="animation-delay:482ms" x1="179.9" y1="271.8" x2="155.8" y2="308.0" stroke="#627ff3" stroke-width="1.7" stroke-linecap="round"/><line class="s" style="animation-delay:484ms" x1="179.0" y1="271.2" x2="171.1" y2="282.6" stroke="#3073ed" stroke-width="1.7" stroke-linecap="round"/><line class="s" style="animation-delay:486ms" x1="178.0" y1="270.5" x2="156.6" y2="300.4" stroke="#577df2" stroke-width="1.7" stroke-linecap="round"/><line class="s" style="animation-delay:488ms" x1="177.1" y1="269.8" x2="159.5" y2="293.5" stroke="#4a7af0" stroke-width="1.7" stroke-linecap="round"/><line class="s" style="animation-delay:491ms" x1="176.2" y1="269.1" x2="156.9" y2="294.3" stroke="#4e7bf1" stroke-width="1.7" stroke-linecap="round"/><line class="s" style="animation-delay:493ms" x1="175.2" y1="268.4" x2="156.9" y2="291.5" stroke="#4a7af0" stroke-width="1.7" stroke-linecap="round"/><line class="s" style="animation-delay:495ms" x1="174.3" y1="267.7" x2="155.6" y2="290.5" stroke="#4a7af0" stroke-width="1.7" stroke-linecap="round"/><circle cx="172.2" cy="268.5" r="0.9" fill="#30363d"/><line class="s" style="animation-delay:499ms" x1="172.6" y1="266.2" x2="154.8" y2="286.4" stroke="#4679f0" stroke-width="1.7" stroke-linecap="round"/><line class="s" style="animation-delay:502ms" x1="171.7" y1="265.4" x2="162.4" y2="275.7" stroke="#3073ed" stroke-width="1.7" stroke-linecap="round"/><circle cx="169.5" cy="266.1" r="0.9" fill="#30363d"/><circle cx="168.6" cy="265.2" r="0.9" fill="#30363d"/><line class="s" style="animation-delay:508ms" x1="169.2" y1="263.0" x2="159.4" y2="272.8" stroke="#3073ed" stroke-width="1.7" stroke-linecap="round"/><line class="s" style="animation-delay:510ms" x1="168.3" y1="262.2" x2="136.5" y2="293.1" stroke="#6480f3" stroke-width="1.7" stroke-linecap="round"/><circle cx="166.1" cy="262.7" r="0.9" fill="#30363d"/><circle cx="165.3" cy="261.8" r="0.9" fill="#30363d"/><circle cx="164.5" cy="260.9" r="0.9" fill="#30363d"/><circle cx="163.7" cy="260.0" r="0.9" fill="#30363d"/><circle cx="162.9" cy="259.1" r="0.9" fill="#30363d"/><line class="s" style="animation-delay:524ms" x1="163.7" y1="256.9" x2="152.9" y2="265.6" stroke="#3073ed" stroke-width="1.7" stroke-linecap="round"/><circle cx="161.4" cy="257.2" r="0.9" fill="#30363d"/><circle cx="160.7" cy="256.3" r="0.9" fill="#30363d"/><line class="s" style="animation-delay:530ms" x1="161.6" y1="254.1" x2="150.4" y2="262.3" stroke="#3073ed" stroke-width="1.7" stroke-linecap="round"/><circle cx="159.3" cy="254.3" r="0.9" fill="#30363d"/><circle cx="158.6" cy="253.4" r="0.9" fill="#30363d"/><circle cx="158.0" cy="252.4" r="0.9" fill="#30363d"/><circle cx="157.3" cy="251.3" r="0.9" fill="#30363d"/><circle cx="156.7" cy="250.3" r="0.9" fill="#30363d"/><circle cx="156.1" cy="249.3" r="0.9" fill="#30363d"/><circle cx="155.5" cy="248.3" r="0.9" fill="#30363d"/><circle cx="154.9" cy="247.2" r="0.9" fill="#30363d"/><circle cx="154.4" cy="246.2" r="0.9" fill="#30363d"/><circle cx="153.8" cy="245.1" r="0.9" fill="#30363d"/><circle cx="153.3" cy="244.0" r="0.9" fill="#30363d"/><circle cx="152.8" cy="242.9" r="0.9" fill="#30363d"/><circle cx="152.3" cy="241.8" r="0.9" fill="#30363d"/><circle cx="151.8" cy="240.8" r="0.9" fill="#30363d"/><circle cx="151.4" cy="239.6" r="0.9" fill="#30363d"/><circle cx="150.9" cy="238.5" r="0.9" fill="#30363d"/><line class="s" style="animation-delay:568ms" x1="152.4" y1="236.7" x2="133.9" y2="243.5" stroke="#3a76ee" stroke-width="1.7" stroke-linecap="round"/><line class="s" style="animation-delay:570ms" x1="152.0" y1="235.6" x2="129.6" y2="243.4" stroke="#4177ef" stroke-width="1.7" stroke-linecap="round"/><circle cx="149.7" cy="235.2" r="0.9" fill="#30363d"/><line class="s" style="animation-delay:574ms" x1="151.3" y1="233.4" x2="117.6" y2="243.9" stroke="#547cf2" stroke-width="1.7" stroke-linecap="round"/><circle cx="149.0" cy="232.9" r="0.9" fill="#30363d"/><line class="s" style="animation-delay:579ms" x1="150.6" y1="231.2" x2="116.6" y2="240.6" stroke="#547cf2" stroke-width="1.7" stroke-linecap="round"/><line class="s" style="animation-delay:581ms" x1="150.3" y1="230.1" x2="111.1" y2="240.2" stroke="#5d7ef3" stroke-width="1.7" stroke-linecap="round"/><line class="s" style="animation-delay:583ms" x1="150.0" y1="228.9" x2="115.7" y2="237.2" stroke="#547cf2" stroke-width="1.7" stroke-linecap="round"/><line class="s" style="animation-delay:585ms" x1="149.8" y1="227.8" x2="118.8" y2="234.8" stroke="#4e7bf1" stroke-width="1.7" stroke-linecap="round"/><line class="s" style="animation-delay:587ms" x1="149.5" y1="226.7" x2="115.0" y2="233.9" stroke="#547cf2" stroke-width="1.7" stroke-linecap="round"/><circle cx="147.3" cy="225.9" r="0.9" fill="#30363d"/><line class="s" style="animation-delay:592ms" x1="149.1" y1="224.4" x2="109.1" y2="231.3" stroke="#5d7ef3" stroke-width="1.7" stroke-linecap="round"/><line class="s" style="animation-delay:594ms" x1="148.9" y1="223.2" x2="93.8" y2="231.9" stroke="#7785f6" stroke-width="1.7" stroke-linecap="round"/><line class="s" style="animation-delay:596ms" x1="148.7" y1="222.1" x2="83.5" y2="231.3" stroke="#8889f8" stroke-width="1.7" stroke-linecap="round"/><line class="s" style="animation-delay:598ms" x1="148.6" y1="220.9" x2="86.3" y2="228.7" stroke="#8387f7" stroke-width="1.7" stroke-linecap="round"/><line class="s" style="animation-delay:601ms" x1="148.4" y1="219.8" x2="96.3" y2="225.4" stroke="#7183f5" stroke-width="1.7" stroke-linecap="round"/><line class="s" style="animation-delay:603ms" x1="148.3" y1="218.6" x2="85.6" y2="224.4" stroke="#8388f7" stroke-width="1.7" stroke-linecap="round"/><line class="s" style="animation-delay:605ms" x1="148.2" y1="217.5" x2="78.1" y2="222.8" stroke="#908bf9" stroke-width="1.7" stroke-linecap="round"/><line class="s" style="animation-delay:607ms" x1="148.1" y1="216.3" x2="84.1" y2="220.1" stroke="#8588f8" stroke-width="1.7" stroke-linecap="round"/><line class="s" style="animation-delay:609ms" x1="148.1" y1="215.1" x2="84.0" y2="217.9" stroke="#8588f8" stroke-width="1.7" stroke-linecap="round"/><line class="s" style="animation-delay:612ms" x1="148.0" y1="214.0" x2="85.3" y2="215.7" stroke="#8387f7" stroke-width="1.7" stroke-linecap="round"/><line class="s" style="animation-delay:614ms" x1="148.0" y1="212.8" x2="93.0" y2="213.4" stroke="#7684f6" stroke-width="1.7" stroke-linecap="round"/><line class="s" style="animation-delay:616ms" x1="148.0" y1="211.6" x2="91.5" y2="211.4" stroke="#7885f6" stroke-width="1.7" stroke-linecap="round"/><line class="s" style="animation-delay:618ms" x1="148.0" y1="210.5" x2="79.8" y2="209.0" stroke="#8c8af8" stroke-width="1.7" stroke-linecap="round"/><line class="s" style="animation-delay:620ms" x1="148.1" y1="209.3" x2="91.6" y2="207.2" stroke="#7885f6" stroke-width="1.7" stroke-linecap="round"/><line class="s" style="animation-delay:623ms" x1="148.1" y1="208.1" x2="102.2" y2="205.7" stroke="#6680f4" stroke-width="1.7" stroke-linecap="round"/><line class="s" style="animation-delay:625ms" x1="148.2" y1="207.0" x2="96.8" y2="203.4" stroke="#7083f5" stroke-width="1.7" stroke-linecap="round"/><circle cx="146.3" cy="205.7" r="0.9" fill="#30363d"/><line class="s" style="animation-delay:629ms" x1="148.4" y1="204.7" x2="119.0" y2="201.7" stroke="#4a7af0" stroke-width="1.7" stroke-linecap="round"/><line class="s" style="animation-delay:631ms" x1="148.5" y1="203.5" x2="110.6" y2="199.0" stroke="#597df2" stroke-width="1.7" stroke-linecap="round"/><circle cx="146.7" cy="202.1" r="0.9" fill="#30363d"/><circle cx="146.8" cy="200.9" r="0.9" fill="#30363d"/><circle cx="147.0" cy="199.7" r="0.9" fill="#30363d"/><circle cx="147.2" cy="198.5" r="0.9" fill="#30363d"/><line class="s" style="animation-delay:642ms" x1="149.4" y1="197.8" x2="130.2" y2="193.9" stroke="#3a76ee" stroke-width="1.7" stroke-linecap="round"/><line class="s" style="animation-delay:645ms" x1="149.7" y1="196.6" x2="104.8" y2="186.8" stroke="#6680f4" stroke-width="1.7" stroke-linecap="round"/><line class="s" style="animation-delay:647ms" x1="149.9" y1="195.5" x2="87.5" y2="180.8" stroke="#8588f8" stroke-width="1.7" stroke-linecap="round"/><line class="s" style="animation-delay:649ms" x1="150.2" y1="194.4" x2="95.7" y2="180.6" stroke="#7885f6" stroke-width="1.7" stroke-linecap="round"/><line class="s" style="animation-delay:651ms" x1="150.5" y1="193.2" x2="88.8" y2="176.6" stroke="#8588f7" stroke-width="1.7" stroke-linecap="round"/><line class="s" style="animation-delay:653ms" x1="150.8" y1="192.1" x2="122.4" y2="184.0" stroke="#4a7af0" stroke-width="1.7" stroke-linecap="round"/><line class="s" style="animation-delay:656ms" x1="151.1" y1="191.0" x2="104.0" y2="176.6" stroke="#6c82f4" stroke-width="1.7" stroke-linecap="round"/><line class="s" style="animation-delay:658ms" x1="151.5" y1="189.9" x2="111.0" y2="176.8" stroke="#607ff3" stroke-width="1.7" stroke-linecap="round"/><line class="s" style="animation-delay:660ms" x1="151.8" y1="188.8" x2="117.0" y2="176.9" stroke="#577df2" stroke-width="1.7" stroke-linecap="round"/><line class="s" style="animation-delay:662ms" x1="152.2" y1="187.7" x2="133.7" y2="181.1" stroke="#3a76ee" stroke-width="1.7" stroke-linecap="round"/><line class="s" style="animation-delay:664ms" x1="152.6" y1="186.6" x2="134.2" y2="179.7" stroke="#3a76ee" stroke-width="1.7" stroke-linecap="round"/><circle cx="151.2" cy="184.8" r="0.9" fill="#30363d"/><line class="s" style="animation-delay:669ms" x1="153.5" y1="184.4" x2="124.2" y2="172.3" stroke="#4e7bf1" stroke-width="1.7" stroke-linecap="round"/><line class="s" style="animation-delay:671ms" x1="153.9" y1="183.4" x2="104.6" y2="162.0" stroke="#7484f5" stroke-width="1.7" stroke-linecap="round"/><line class="s" style="animation-delay:673ms" x1="154.4" y1="182.3" x2="102.6" y2="158.8" stroke="#7985f6" stroke-width="1.7" stroke-linecap="round"/><circle cx="153.1" cy="180.4" r="0.9" fill="#30363d"/><line class="s" style="animation-delay:678ms" x1="155.4" y1="180.2" x2="122.4" y2="163.9" stroke="#577df2" stroke-width="1.7" stroke-linecap="round"/><line class="s" style="animation-delay:680ms" x1="155.9" y1="179.2" x2="119.9" y2="160.7" stroke="#5d7ef3" stroke-width="1.7" stroke-linecap="round"/><line class="s" style="animation-delay:682ms" x1="156.5" y1="178.1" x2="132.7" y2="165.5" stroke="#4679f0" stroke-width="1.7" stroke-linecap="round"/><line class="s" style="animation-delay:684ms" x1="157.0" y1="177.1" x2="136.3" y2="165.6" stroke="#4177ef" stroke-width="1.7" stroke-linecap="round"/><line class="s" style="animation-delay:686ms" x1="157.6" y1="176.1" x2="145.6" y2="169.2" stroke="#3073ed" stroke-width="1.7" stroke-linecap="round"/><line class="s" style="animation-delay:689ms" x1="158.2" y1="175.1" x2="115.4" y2="149.5" stroke="#6d82f5" stroke-width="1.7" stroke-linecap="round"/><line class="s" style="animation-delay:691ms" x1="158.8" y1="174.1" x2="133.7" y2="158.5" stroke="#4a7af0" stroke-width="1.7" stroke-linecap="round"/><line class="s" style="animation-delay:693ms" x1="159.4" y1="173.1" x2="147.7" y2="165.6" stroke="#3073ed" stroke-width="1.7" stroke-linecap="round"/><line class="s" style="animation-delay:695ms" x1="160.0" y1="172.1" x2="143.7" y2="161.3" stroke="#3a76ee" stroke-width="1.7" stroke-linecap="round"/><line class="s" style="animation-delay:697ms" x1="160.7" y1="171.2" x2="128.3" y2="148.8" stroke="#5b7ef2" stroke-width="1.7" stroke-linecap="round"/><circle cx="159.7" cy="169.1" r="0.9" fill="#30363d"/><line class="s" style="animation-delay:702ms" x1="162.0" y1="169.3" x2="146.2" y2="157.6" stroke="#3a76ee" stroke-width="1.7" stroke-linecap="round"/><line class="s" style="animation-delay:704ms" x1="162.7" y1="168.3" x2="124.1" y2="138.8" stroke="#6b82f4" stroke-width="1.7" stroke-linecap="round"/><line class="s" style="animation-delay:706ms" x1="163.5" y1="167.4" x2="120.9" y2="133.8" stroke="#7484f5" stroke-width="1.7" stroke-linecap="round"/><line class="s" style="animation-delay:708ms" x1="164.2" y1="166.5" x2="123.2" y2="133.1" stroke="#7283f5" stroke-width="1.7" stroke-linecap="round"/><line class="s" style="animation-delay:711ms" x1="164.9" y1="165.6" x2="140.7" y2="145.2" stroke="#4e7bf1" stroke-width="1.7" stroke-linecap="round"/><line class="s" style="animation-delay:713ms" x1="165.7" y1="164.7" x2="118.7" y2="123.8" stroke="#8287f7" stroke-width="1.7" stroke-linecap="round"/><line class="s" style="animation-delay:715ms" x1="166.5" y1="163.9" x2="122.5" y2="124.3" stroke="#7d86f6" stroke-width="1.7" stroke-linecap="round"/><line class="s" style="animation-delay:717ms" x1="167.2" y1="163.0" x2="129.9" y2="128.3" stroke="#6f83f5" stroke-width="1.7" stroke-linecap="round"/><line class="s" style="animation-delay:719ms" x1="168.0" y1="162.2" x2="125.4" y2="121.2" stroke="#7d86f6" stroke-width="1.7" stroke-linecap="round"/><line class="s" style="animation-delay:722ms" x1="168.9" y1="161.3" x2="131.6" y2="124.4" stroke="#7183f5" stroke-width="1.7" stroke-linecap="round"/><line class="s" style="animation-delay:724ms" x1="169.7" y1="160.5" x2="153.1" y2="143.5" stroke="#4177ef" stroke-width="1.7" stroke-linecap="round"/><line class="s" style="animation-delay:726ms" x1="170.5" y1="159.7" x2="137.5" y2="124.8" stroke="#6a81f4" stroke-width="1.7" stroke-linecap="round"/><line class="s" style="animation-delay:728ms" x1="171.4" y1="158.9" x2="162.0" y2="148.7" stroke="#3073ed" stroke-width="1.7" stroke-linecap="round"/><line class="s" style="animation-delay:730ms" x1="172.2" y1="158.1" x2="163.0" y2="147.7" stroke="#3073ed" stroke-width="1.7" stroke-linecap="round"/><circle cx="171.8" cy="155.8" r="0.9" fill="#30363d"/><circle cx="172.7" cy="155.1" r="0.9" fill="#30363d"/><circle cx="173.7" cy="154.3" r="0.9" fill="#30363d"/><circle cx="174.6" cy="153.6" r="0.9" fill="#30363d"/><circle cx="175.5" cy="152.8" r="0.9" fill="#30363d"/><line class="s" style="animation-delay:744ms" x1="177.7" y1="153.8" x2="141.9" y2="104.6" stroke="#7f87f7" stroke-width="1.7" stroke-linecap="round"/><line class="s" style="animation-delay:746ms" x1="178.6" y1="153.1" x2="144.5" y2="104.4" stroke="#7d86f7" stroke-width="1.7" stroke-linecap="round"/><line class="s" style="animation-delay:748ms" x1="179.6" y1="152.4" x2="152.6" y2="112.7" stroke="#6a81f4" stroke-width="1.7" stroke-linecap="round"/><line class="s" style="animation-delay:750ms" x1="180.5" y1="151.8" x2="152.1" y2="108.3" stroke="#7083f5" stroke-width="1.7" stroke-linecap="round"/><line class="s" style="animation-delay:752ms" x1="181.5" y1="151.1" x2="147.2" y2="96.8" stroke="#8588f8" stroke-width="1.7" stroke-linecap="round"/><line class="s" style="animation-delay:755ms" x1="182.5" y1="150.5" x2="145.0" y2="89.0" stroke="#938bf9" stroke-width="1.7" stroke-linecap="round"/><line class="s" style="animation-delay:757ms" x1="183.5" y1="149.9" x2="154.7" y2="100.9" stroke="#7985f6" stroke-width="1.7" stroke-linecap="round"/><line class="s" style="animation-delay:759ms" x1="184.5" y1="149.3" x2="155.2" y2="97.6" stroke="#7d86f7" stroke-width="1.7" stroke-linecap="round"/><line class="s" style="animation-delay:761ms" x1="185.5" y1="148.8" x2="147.1" y2="78.2" stroke="#a18ffb" stroke-width="1.7" stroke-linecap="round"/><line class="s" style="animation-delay:763ms" x1="186.6" y1="148.2" x2="157.7" y2="93.3" stroke="#8287f7" stroke-width="1.7" stroke-linecap="round"/><line class="s" style="animation-delay:766ms" x1="187.6" y1="147.7" x2="174.3" y2="121.3" stroke="#4a7af0" stroke-width="1.7" stroke-linecap="round"/><circle cx="187.8" cy="145.4" r="0.9" fill="#30363d"/><line class="s" style="animation-delay:770ms" x1="189.7" y1="146.7" x2="160.1" y2="82.8" stroke="#908bf9" stroke-width="1.7" stroke-linecap="round"/><line class="s" style="animation-delay:772ms" x1="190.8" y1="146.2" x2="160.3" y2="77.8" stroke="#978dfa" stroke-width="1.7" stroke-linecap="round"/><line class="s" style="animation-delay:774ms" x1="191.8" y1="145.7" x2="186.4" y2="133.0" stroke="#3073ed" stroke-width="1.7" stroke-linecap="round"/><line class="s" style="animation-delay:777ms" x1="192.9" y1="145.3" x2="181.0" y2="115.9" stroke="#4e7bf1" stroke-width="1.7" stroke-linecap="round"/><line class="s" style="animation-delay:779ms" x1="194.0" y1="144.9" x2="178.9" y2="106.1" stroke="#5f7ff3" stroke-width="1.7" stroke-linecap="round"/><line class="s" style="animation-delay:781ms" x1="195.1" y1="144.5" x2="170.8" y2="78.8" stroke="#8f8bf9" stroke-width="1.7" stroke-linecap="round"/><line class="s" style="animation-delay:783ms" x1="196.2" y1="144.1" x2="167.1" y2="61.2" stroke="#ad92fc" stroke-width="1.7" stroke-linecap="round"/><line class="s" style="animation-delay:785ms" x1="197.3" y1="143.7" x2="165.7" y2="48.8" stroke="#c297ff" stroke-width="1.7" stroke-linecap="round"/><line class="s" style="animation-delay:788ms" x1="198.4" y1="143.3" x2="173.0" y2="62.9" stroke="#a790fc" stroke-width="1.7" stroke-linecap="round"/><line class="s" style="animation-delay:790ms" x1="199.5" y1="143.0" x2="180.4" y2="78.7" stroke="#8a89f8" stroke-width="1.7" stroke-linecap="round"/><line class="s" style="animation-delay:792ms" x1="200.6" y1="142.7" x2="196.9" y2="129.3" stroke="#3073ed" stroke-width="1.7" stroke-linecap="round"/><line class="s" style="animation-delay:794ms" x1="201.7" y1="142.4" x2="198.2" y2="128.9" stroke="#3073ed" stroke-width="1.7" stroke-linecap="round"/><line class="s" style="animation-delay:796ms" x1="202.9" y1="142.1" x2="199.5" y2="128.6" stroke="#3073ed" stroke-width="1.7" stroke-linecap="round"/><line class="s" style="animation-delay:799ms" x1="204.0" y1="141.8" x2="200.9" y2="128.3" stroke="#3073ed" stroke-width="1.7" stroke-linecap="round"/><line class="s" style="animation-delay:801ms" x1="205.1" y1="141.6" x2="188.6" y2="63.5" stroke="#a08ffb" stroke-width="1.7" stroke-linecap="round"/>
<line x1="320.5" y1="73.7" x2="324.0" y2="68.8" stroke="#8b949e" stroke-width="1"/><text x="329.9" y="60.7" class="m" text-anchor="middle" dominant-baseline="middle">Nov</text><line x1="373.4" y1="136.5" x2="378.8" y2="133.8" stroke="#8b949e" stroke-width="1"/><text x="387.8" y="129.4" class="m" text-anchor="middle" dominant-baseline="middle">Dec</text><line x1="390.8" y1="219.4" x2="396.8" y2="219.7" stroke="#8b949e" stroke-width="1"/><text x="406.8" y="220.1" class="m" text-anchor="middle" dominant-baseline="middle">Jan</text><line x1="366.3" y1="300.6" x2="371.4" y2="303.7" stroke="#8b949e" stroke-width="1"/><text x="380.0" y="308.9" class="m" text-anchor="middle" dominant-baseline="middle">Feb</text><line x1="312.8" y1="355.6" x2="316.1" y2="360.7" stroke="#8b949e" stroke-width="1"/><text x="321.5" y="369.1" class="m" text-anchor="middle" dominant-baseline="middle">Mar</text><line x1="232.4" y1="382.5" x2="232.9" y2="388.5" stroke="#8b949e" stroke-width="1"/><text x="233.6" y="398.5" class="m" text-anchor="middle" dominant-baseline="middle">Apr</text><line x1="151.5" y1="368.7" x2="149.1" y2="374.2" stroke="#8b949e" stroke-width="1"/><text x="145.1" y="383.3" class="m" text-anchor="middle" dominant-baseline="middle">May</text><line x1="84.7" y1="316.5" x2="79.9" y2="320.2" stroke="#8b949e" stroke-width="1"/><text x="72.0" y="326.3" class="m" text-anchor="middle" dominant-baseline="middle">Jun</text><line x1="51.5" y1="241.4" x2="45.6" y2="242.4" stroke="#8b949e" stroke-width="1"/><text x="35.8" y="244.1" class="m" text-anchor="middle" dominant-baseline="middle">Jul</text><line x1="58.1" y1="156.9" x2="52.5" y2="154.9" stroke="#8b949e" stroke-width="1"/><text x="43.0" y="151.7" class="m" text-anchor="middle" dominant-baseline="middle">Aug</text><line x1="104.5" y1="85.9" x2="100.5" y2="81.5" stroke="#8b949e" stroke-width="1"/><text x="93.7" y="74.1" class="m" text-anchor="middle" dominant-baseline="middle">Sep</text>
<circle cx="253.2" cy="41.2" r="2" fill="#8b949e"/>
<circle cx="184.0" cy="41.8" r="3.2" fill="#c297ff"/>
<text x="181.2" y="28.1" class="today" text-anchor="end" dominant-baseline="middle">today</text>
<text x="220" y="216" class="big" text-anchor="middle">5,062</text>
<text x="220" y="236" class="cap" text-anchor="middle">contributions</text>
<text x="220" y="251" class="cap" text-anchor="middle">last 12 months</text>
<text x="500" y="52" class="eye">ONE SPOKE PER DAY · 186 ACTIVE DAYS IN 12 MONTHS</text>
<g transform="translate(500 92)"><text class="n">7,636</text><text class="l" y="24">contributions since 2018</text></g><g transform="translate(500 164)"><text class="n">83 weeks</text><text class="l" y="24">longest run of active weeks</text></g><g transform="translate(500 236)"><text class="n">17 weeks</text><text class="l" y="24">active every week, right now</text></g><g transform="translate(500 308)"><text class="n">845</text><text class="l" y="24">on the busiest single day</text></g>
<text x="500" y="398" class="foot">Daily counts only, redrawn every day from the public contribution calendar.</text>
</svg>