<svg xmlns="http://www.w3.org/2000/svg" width="520" height="440" viewBox="0 0 520 440" role="img" aria-label="Contributions over the last 12 months, one spoke per day">
<style>
  text{font-family:ui-sans-serif,-apple-system,"Segoe UI",Helvetica,Arial,sans-serif;fill:#1f2328}
  .m{font-size:11px;fill:#59636e;letter-spacing:.04em}
  .today{font-size:11px;font-weight:600;letter-spacing:.04em}
  .cap{font-size:12px;fill:#59636e;letter-spacing:.08em}
  .s{animation:in .9s ease-out backwards}
  @keyframes in{from{opacity:0}}
  @media (prefers-reduced-motion:reduce){.s{animation:none}}
</style>
<defs><radialGradient id="g"><stop offset="0" stop-color="#8250df" stop-opacity=".06"/><stop offset="1" stop-color="#8250df" stop-opacity="0"/></radialGradient></defs>
<circle cx="260" cy="220" r="172" fill="url(#g)"/>
<circle cx="260" cy="220" r="62" fill="none" stroke="#d1d9e0"/>
<circle cx="260" cy="220" r="178" fill="none" stroke="#d1d9e0" stroke-dasharray="1 4"/>
<circle cx="274.1" cy="147.4" r="0.9" fill="#d1d9e0"/><circle cx="275.3" cy="147.6" r="0.9" fill="#d1d9e0"/><circle cx="276.5" cy="147.9" r="0.9" fill="#d1d9e0"/><circle cx="277.6" cy="148.1" r="0.9" fill="#d1d9e0"/><circle cx="278.8" cy="148.4" r="0.9" fill="#d1d9e0"/><circle cx="279.9" cy="148.7" r="0.9" fill="#d1d9e0"/><circle cx="281.1" cy="149.1" r="0.9" fill="#d1d9e0"/><circle cx="282.2" cy="149.4" r="0.9" fill="#d1d9e0"/><circle cx="283.4" cy="149.8" r="0.9" fill="#d1d9e0"/><circle cx="284.5" cy="150.2" r="0.9" fill="#d1d9e0"/><line class="s" style="animation-delay:22ms" x1="284.9" y1="152.5" x2="292.0" y2="133.4" stroke="#1d65db" stroke-width="1.7" stroke-linecap="round"/><circle cx="286.7" cy="151.0" r="0.9" fill="#d1d9e0"/><circle cx="287.9" cy="151.4" r="0.9" fill="#d1d9e0"/><circle cx="289.0" cy="151.9" r="0.9" fill="#d1d9e0"/><circle cx="290.1" cy="152.4" r="0.9" fill="#d1d9e0"/><circle cx="291.1" cy="152.9" r="0.9" fill="#d1d9e0"/><circle cx="292.2" cy="153.4" r="0.9" fill="#d1d9e0"/><circle cx="293.3" cy="153.9" r="0.9" fill="#d1d9e0"/><circle cx="294.4" cy="154.5" r="0.9" fill="#d1d9e0"/><line class="s" style="animation-delay:42ms" x1="294.5" y1="156.8" x2="304.2" y2="139.0" stroke="#1d65db" stroke-width="1.7" stroke-linecap="round"/><circle cx="296.5" cy="155.6" r="0.9" fill="#d1d9e0"/><line class="s" style="animation-delay:46ms" x1="296.5" y1="157.9" x2="303.7" y2="145.6" stroke="#1566db" stroke-width="1.7" stroke-linecap="round"/><circle cx="298.5" cy="156.8" r="0.9" fill="#d1d9e0"/><circle cx="299.5" cy="157.4" r="0.9" fill="#d1d9e0"/><circle cx="300.5" cy="158.1" r="0.9" fill="#d1d9e0"/><circle cx="301.5" cy="158.8" r="0.9" fill="#d1d9e0"/><circle cx="302.5" cy="159.4" r="0.9" fill="#d1d9e0"/><circle cx="303.5" cy="160.1" r="0.9" fill="#d1d9e0"/><circle cx="304.5" cy="160.8" r="0.9" fill="#d1d9e0"/><circle cx="305.4" cy="161.6" r="0.9" fill="#d1d9e0"/><circle cx="306.3" cy="162.3" r="0.9" fill="#d1d9e0"/><circle cx="307.3" cy="163.1" r="0.9" fill="#d1d9e0"/><line class="s" style="animation-delay:70ms" x1="306.9" y1="165.4" x2="316.2" y2="154.5" stroke="#1566db" stroke-width="1.7" stroke-linecap="round"/><line class="s" style="animation-delay:73ms" x1="307.8" y1="166.1" x2="328.1" y2="143.2" stroke="#2962db" stroke-width="1.7" stroke-linecap="round"/><line class="s" style="animation-delay:75ms" x1="308.6" y1="166.9" x2="322.3" y2="151.9" stroke="#1d65db" stroke-width="1.7" stroke-linecap="round"/><line class="s" style="animation-delay:77ms" x1="309.5" y1="167.7" x2="323.4" y2="153.0" stroke="#1d65db" stroke-width="1.7" stroke-linecap="round"/><circle cx="311.7" cy="167.1" r="0.9" fill="#d1d9e0"/><circle cx="312.6" cy="167.9" r="0.9" fill="#d1d9e0"/><circle cx="313.4" cy="168.8" r="0.9" fill="#d1d9e0"/><circle cx="314.2" cy="169.6" r="0.9" fill="#d1d9e0"/><circle cx="315.0" cy="170.5" r="0.9" fill="#d1d9e0"/><circle cx="315.8" cy="171.4" r="0.9" fill="#d1d9e0"/><circle cx="316.6" cy="172.3" r="0.9" fill="#d1d9e0"/><circle cx="317.4" cy="173.2" r="0.9" fill="#d1d9e0"/><circle cx="318.1" cy="174.2" r="0.9" fill="#d1d9e0"/><circle cx="318.8" cy="175.1" r="0.9" fill="#d1d9e0"/><circle cx="319.6" cy="176.1" r="0.9" fill="#d1d9e0"/><line class="s" style="animation-delay:103ms" x1="318.6" y1="178.2" x2="338.6" y2="164.0" stroke="#2264db" stroke-width="1.7" stroke-linecap="round"/><line class="s" style="animation-delay:106ms" x1="319.3" y1="179.2" x2="344.5" y2="161.8" stroke="#2962db" stroke-width="1.7" stroke-linecap="round"/><circle cx="321.6" cy="179.0" r="0.9" fill="#d1d9e0"/><circle cx="322.3" cy="180.0" r="0.9" fill="#d1d9e0"/><circle cx="322.9" cy="181.0" r="0.9" fill="#d1d9e0"/><circle cx="323.5" cy="182.1" r="0.9" fill="#d1d9e0"/><line class="s" style="animation-delay:117ms" x1="322.4" y1="184.1" x2="334.8" y2="177.0" stroke="#1566db" stroke-width="1.7" stroke-linecap="round"/><line class="s" style="animation-delay:119ms" x1="323.0" y1="185.1" x2="335.5" y2="178.2" stroke="#1566db" stroke-width="1.7" stroke-linecap="round"/><circle cx="325.3" cy="185.2" r="0.9" fill="#d1d9e0"/><circle cx="325.9" cy="186.2" r="0.9" fill="#d1d9e0"/><circle cx="326.4" cy="187.3" r="0.9" fill="#d1d9e0"/><circle cx="326.9" cy="188.4" r="0.9" fill="#d1d9e0"/><circle cx="327.4" cy="189.5" r="0.9" fill="#d1d9e0"/><circle cx="327.9" cy="190.6" r="0.9" fill="#d1d9e0"/><circle cx="328.4" cy="191.7" r="0.9" fill="#d1d9e0"/><circle cx="328.8" cy="192.8" r="0.9" fill="#d1d9e0"/><circle cx="329.2" cy="193.9" r="0.9" fill="#d1d9e0"/><circle cx="329.7" cy="195.0" r="0.9" fill="#d1d9e0"/><circle cx="330.0" cy="196.1" r="0.9" fill="#d1d9e0"/><circle cx="330.4" cy="197.3" r="0.9" fill="#d1d9e0"/><circle cx="330.8" cy="198.4" r="0.9" fill="#d1d9e0"/><circle cx="331.1" cy="199.6" r="0.9" fill="#d1d9e0"/><line class="s" style="animation-delay:152ms" x1="329.5" y1="201.2" x2="343.3" y2="197.5" stroke="#1566db" stroke-width="1.7" stroke-linecap="round"/><line class="s" style="animation-delay:154ms" x1="329.8" y1="202.4" x2="349.5" y2="197.4" stroke="#1d65db" stroke-width="1.7" stroke-linecap="round"/><line class="s" style="animation-delay:156ms" x1="330.1" y1="203.5" x2="381.6" y2="191.4" stroke="#445ddc" stroke-width="1.7" stroke-linecap="round"/><line class="s" style="animation-delay:158ms" x1="330.3" y1="204.6" x2="370.3" y2="195.9" stroke="#3660dc" stroke-width="1.7" stroke-linecap="round"/><line class="s" style="animation-delay:161ms" x1="330.6" y1="205.8" x2="374.8" y2="196.8" stroke="#3b5fdc" stroke-width="1.7" stroke-linecap="round"/><line class="s" style="animation-delay:163ms" x1="330.8" y1="206.9" x2="366.8" y2="200.3" stroke="#3061dc" stroke-width="1.7" stroke-linecap="round"/><line class="s" style="animation-delay:165ms" x1="331.0" y1="208.1" x2="361.2" y2="203.0" stroke="#2962db" stroke-width="1.7" stroke-linecap="round"/><line class="s" style="animation-delay:167ms" x1="331.2" y1="209.2" x2="351.3" y2="206.2" stroke="#1d65db" stroke-width="1.7" stroke-linecap="round"/><line class="s" style="animation-delay:169ms" x1="331.4" y1="210.4" x2="367.6" y2="205.5" stroke="#3061dc" stroke-width="1.7" stroke-linecap="round"/><line class="s" style="animation-delay:172ms" x1="331.5" y1="211.5" x2="385.1" y2="205.2" stroke="#455ddc" stroke-width="1.7" stroke-linecap="round"/><line class="s" style="animation-delay:174ms" x1="331.6" y1="212.7" x2="371.0" y2="208.6" stroke="#3460dc" stroke-width="1.7" stroke-linecap="round"/><line class="s" style="animation-delay:176ms" x1="331.7" y1="213.8" x2="356.2" y2="211.7" stroke="#2264db" stroke-width="1.7" stroke-linecap="round"/><line class="s" style="animation-delay:178ms" x1="331.8" y1="215.0" x2="352.1" y2="213.6" stroke="#1d65db" stroke-width="1.7" stroke-linecap="round"/><line class="s" style="animation-delay:180ms" x1="331.9" y1="216.1" x2="370.0" y2="214.1" stroke="#3260dc" stroke-width="1.7" stroke-linecap="round"/><line class="s" style="animation-delay:183ms" x1="331.9" y1="217.3" x2="364.8" y2="216.1" stroke="#2c62db" stroke-width="1.7" stroke-linecap="round"/><line class="s" style="animation-delay:185ms" x1="332.0" y1="218.5" x2="362.6" y2="217.8" stroke="#2962db" stroke-width="1.7" stroke-linecap="round"/><line class="s" style="animation-delay:187ms" x1="332.0" y1="219.6" x2="346.3" y2="219.6" stroke="#1566db" stroke-width="1.7" stroke-linecap="round"/><line class="s" style="animation-delay:189ms" x1="332.0" y1="220.8" x2="378.9" y2="221.3" stroke="#3d5edc" stroke-width="1.7" stroke-linecap="round"/><line class="s" style="animation-delay:191ms" x1="332.0" y1="222.0" x2="380.4" y2="223.3" stroke="#3f5edc" stroke-width="1.7" stroke-linecap="round"/><circle cx="333.9" cy="223.2" r="0.9" fill="#d1d9e0"/><circle cx="333.9" cy="224.4" r="0.9" fill="#d1d9e0"/><line class="s" style="animation-delay:198ms" x1="331.8" y1="225.5" x2="346.0" y2="226.5" stroke="#1566db" stroke-width="1.7" stroke-linecap="round"/><circle cx="333.7" cy="226.8" r="0.9" fill="#d1d9e0"/><circle cx="333.6" cy="228.0" r="0.9" fill="#d1d9e0"/><circle cx="333.4" cy="229.2" r="0.9" fill="#d1d9e0"/><line class="s" style="animation-delay:207ms" x1="331.3" y1="230.1" x2="358.9" y2="234.0" stroke="#2663db" stroke-width="1.7" stroke-linecap="round"/><line class="s" style="animation-delay:209ms" x1="331.1" y1="231.2" x2="345.2" y2="233.5" stroke="#1566db" stroke-width="1.7" stroke-linecap="round"/><line class="s" style="animation-delay:211ms" x1="330.9" y1="232.4" x2="350.9" y2="235.9" stroke="#1d65db" stroke-width="1.7" stroke-linecap="round"/><line class="s" style="animation-delay:213ms" x1="330.7" y1="233.5" x2="350.7" y2="237.3" stroke="#1d65db" stroke-width="1.7" stroke-linecap="round"/><circle cx="332.4" cy="235.1" r="0.9" fill="#d1d9e0"/><circle cx="332.2" cy="236.2" r="0.9" fill="#d1d9e0"/><circle cx="331.9" cy="237.4" r="0.9" fill="#d1d9e0"/><circle cx="331.6" cy="238.6" r="0.9" fill="#d1d9e0"/><circle cx="331.3" cy="239.7" r="0.9" fill="#d1d9e0"/><circle cx="331.0" cy="240.9" r="0.9" fill="#d1d9e0"/><circle cx="330.6" cy="242.0" r="0.9" fill="#d1d9e0"/><circle cx="330.3" cy="243.2" r="0.9" fill="#d1d9e0"/><circle cx="329.9" cy="244.3" r="0.9" fill="#d1d9e0"/><line class="s" style="animation-delay:235ms" x1="327.6" y1="244.7" x2="364.8" y2="258.3" stroke="#3460dc" stroke-width="1.7" stroke-linecap="round"/><line class="s" style="animation-delay:238ms" x1="327.2" y1="245.8" x2="376.6" y2="264.8" stroke="#445ddc" stroke-width="1.7" stroke-linecap="round"/><line class="s" style="animation-delay:240ms" x1="326.8" y1="246.9" x2="349.6" y2="256.1" stroke="#2264db" stroke-width="1.7" stroke-linecap="round"/><line class="s" style="animation-delay:242ms" x1="326.3" y1="248.0" x2="370.3" y2="266.5" stroke="#3e5edc" stroke-width="1.7" stroke-linecap="round"/><line class="s" style="animation-delay:244ms" x1="325.9" y1="249.0" x2="359.4" y2="263.8" stroke="#3061dc" stroke-width="1.7" stroke-linecap="round"/><line class="s" style="animation-delay:246ms" x1="325.4" y1="250.1" x2="374.4" y2="272.7" stroke="#455ddc" stroke-width="1.7" stroke-linecap="round"/><line class="s" style="animation-delay:249ms" x1="324.9" y1="251.2" x2="361.8" y2="268.8" stroke="#3660dc" stroke-width="1.7" stroke-linecap="round"/><line class="s" style="animation-delay:251ms" x1="324.4" y1="252.2" x2="376.6" y2="278.3" stroke="#4b5bdd" stroke-width="1.7" stroke-linecap="round"/><line class="s" style="animation-delay:253ms" x1="323.9" y1="253.2" x2="362.1" y2="273.2" stroke="#385fdc" stroke-width="1.7" stroke-linecap="round"/><line class="s" style="animation-delay:255ms" x1="323.3" y1="254.3" x2="355.5" y2="271.7" stroke="#3061dc" stroke-width="1.7" stroke-linecap="round"/><line class="s" style="animation-delay:257ms" x1="322.8" y1="255.3" x2="363.6" y2="278.3" stroke="#3d5edc" stroke-width="1.7" stroke-linecap="round"/><line class="s" style="animation-delay:260ms" x1="322.2" y1="256.3" x2="348.6" y2="271.7" stroke="#2962db" stroke-width="1.7" stroke-linecap="round"/><line class="s" style="animation-delay:262ms" x1="321.6" y1="257.3" x2="357.6" y2="279.1" stroke="#375fdc" stroke-width="1.7" stroke-linecap="round"/><circle cx="322.7" cy="259.3" r="0.9" fill="#d1d9e0"/><circle cx="322.0" cy="260.4" r="0.9" fill="#d1d9e0"/><circle cx="321.4" cy="261.4" r="0.9" fill="#d1d9e0"/><line class="s" style="animation-delay:271ms" x1="319.0" y1="261.2" x2="335.7" y2="272.8" stroke="#1d65db" stroke-width="1.7" stroke-linecap="round"/><circle cx="320.0" cy="263.3" r="0.9" fill="#d1d9e0"/><circle cx="319.3" cy="264.3" r="0.9" fill="#d1d9e0"/><circle cx="318.6" cy="265.2" r="0.9" fill="#d1d9e0"/><circle cx="317.8" cy="266.2" r="0.9" fill="#d1d9e0"/><circle cx="317.1" cy="267.1" r="0.9" fill="#d1d9e0"/><circle cx="316.3" cy="268.0" r="0.9" fill="#d1d9e0"/><circle cx="315.5" cy="268.9" r="0.9" fill="#d1d9e0"/><line class="s" style="animation-delay:288ms" x1="313.2" y1="268.5" x2="323.8" y2="278.1" stroke="#1566db" stroke-width="1.7" stroke-linecap="round"/><circle cx="313.9" cy="270.7" r="0.9" fill="#d1d9e0"/><circle cx="313.1" cy="271.6" r="0.9" fill="#d1d9e0"/><circle cx="312.2" cy="272.4" r="0.9" fill="#d1d9e0"/><line class="s" style="animation-delay:297ms" x1="310.0" y1="271.8" x2="324.1" y2="286.4" stroke="#1d65db" stroke-width="1.7" stroke-linecap="round"/><line class="s" style="animation-delay:299ms" x1="309.2" y1="272.6" x2="318.9" y2="283.0" stroke="#1566db" stroke-width="1.7" stroke-linecap="round"/><circle cx="309.6" cy="274.9" r="0.9" fill="#d1d9e0"/><circle cx="308.8" cy="275.7" r="0.9" fill="#d1d9e0"/><circle cx="307.8" cy="276.5" r="0.9" fill="#d1d9e0"/><circle cx="306.9" cy="277.2" r="0.9" fill="#d1d9e0"/><line class="s" style="animation-delay:310ms" x1="304.8" y1="276.4" x2="326.4" y2="303.7" stroke="#2e61dc" stroke-width="1.7" stroke-linecap="round"/><circle cx="305.1" cy="278.7" r="0.9" fill="#d1d9e0"/><circle cx="304.1" cy="279.4" r="0.9" fill="#d1d9e0"/><circle cx="303.1" cy="280.1" r="0.9" fill="#d1d9e0"/><circle cx="302.2" cy="280.8" r="0.9" fill="#d1d9e0"/><circle cx="301.2" cy="281.5" r="0.9" fill="#d1d9e0"/><circle cx="300.2" cy="282.2" r="0.9" fill="#d1d9e0"/><line class="s" style="animation-delay:326ms" x1="298.1" y1="281.1" x2="305.7" y2="293.2" stroke="#1566db" stroke-width="1.7" stroke-linecap="round"/><circle cx="298.1" cy="283.4" r="0.9" fill="#d1d9e0"/><circle cx="297.1" cy="284.0" r="0.9" fill="#d1d9e0"/><line class="s" style="animation-delay:332ms" x1="295.1" y1="282.9" x2="307.1" y2="304.3" stroke="#2264db" stroke-width="1.7" stroke-linecap="round"/><line class="s" style="animation-delay:334ms" x1="294.1" y1="283.4" x2="300.8" y2="296.0" stroke="#1566db" stroke-width="1.7" stroke-linecap="round"/><line class="s" style="animation-delay:337ms" x1="293.0" y1="284.0" x2="308.1" y2="313.2" stroke="#2c62db" stroke-width="1.7" stroke-linecap="round"/><line class="s" style="animation-delay:339ms" x1="292.0" y1="284.5" x2="307.5" y2="315.7" stroke="#2e61dc" stroke-width="1.7" stroke-linecap="round"/><line class="s" style="animation-delay:341ms" x1="291.0" y1="285.0" x2="297.1" y2="297.9" stroke="#1566db" stroke-width="1.7" stroke-linecap="round"/><circle cx="290.7" cy="287.3" r="0.9" fill="#d1d9e0"/><circle cx="289.6" cy="287.8" r="0.9" fill="#d1d9e0"/><line class="s" style="animation-delay:348ms" x1="287.8" y1="286.4" x2="303.5" y2="324.1" stroke="#3660dc" stroke-width="1.7" stroke-linecap="round"/><line class="s" style="animation-delay:350ms" x1="286.7" y1="286.9" x2="292.0" y2="300.1" stroke="#1566db" stroke-width="1.7" stroke-linecap="round"/><circle cx="286.3" cy="289.2" r="0.9" fill="#d1d9e0"/><circle cx="285.2" cy="289.6" r="0.9" fill="#d1d9e0"/><circle cx="284.1" cy="290.0" r="0.9" fill="#d1d9e0"/><line class="s" style="animation-delay:359ms" x1="282.3" y1="288.5" x2="288.6" y2="307.8" stroke="#1d65db" stroke-width="1.7" stroke-linecap="round"/><line class="s" style="animation-delay:361ms" x1="281.2" y1="288.8" x2="293.2" y2="327.9" stroke="#3660dc" stroke-width="1.7" stroke-linecap="round"/><line class="s" style="animation-delay:363ms" x1="280.1" y1="289.1" x2="284.1" y2="302.9" stroke="#1566db" stroke-width="1.7" stroke-linecap="round"/><line class="s" style="animation-delay:365ms" x1="279.0" y1="289.5" x2="282.7" y2="303.2" stroke="#1566db" stroke-width="1.7" stroke-linecap="round"/><circle cx="278.3" cy="291.7" r="0.9" fill="#d1d9e0"/><circle cx="277.2" cy="292.0" r="0.9" fill="#d1d9e0"/><circle cx="276.0" cy="292.2" r="0.9" fill="#d1d9e0"/><circle cx="274.8" cy="292.5" r="0.9" fill="#d1d9e0"/><circle cx="273.7" cy="292.7" r="0.9" fill="#d1d9e0"/><line class="s" style="animation-delay:378ms" x1="272.2" y1="291.0" x2="274.6" y2="305.0" stroke="#1566db" stroke-width="1.7" stroke-linecap="round"/><circle cx="271.3" cy="293.1" r="0.9" fill="#d1d9e0"/><circle cx="270.1" cy="293.3" r="0.9" fill="#d1d9e0"/><line class="s" style="animation-delay:385ms" x1="268.7" y1="291.5" x2="270.4" y2="305.7" stroke="#1566db" stroke-width="1.7" stroke-linecap="round"/><line class="s" style="animation-delay:387ms" x1="267.6" y1="291.6" x2="272.0" y2="333.4" stroke="#375fdc" stroke-width="1.7" stroke-linecap="round"/><circle cx="266.6" cy="293.7" r="0.9" fill="#d1d9e0"/><circle cx="265.4" cy="293.8" r="0.9" fill="#d1d9e0"/><circle cx="264.2" cy="293.9" r="0.9" fill="#d1d9e0"/><circle cx="263.0" cy="293.9" r="0.9" fill="#d1d9e0"/><circle cx="261.8" cy="294.0" r="0.9" fill="#d1d9e0"/><circle cx="260.6" cy="294.0" r="0.9" fill="#d1d9e0"/><circle cx="259.4" cy="294.0" r="0.9" fill="#d1d9e0"/><circle cx="258.2" cy="294.0" r="0.9" fill="#d1d9e0"/><circle cx="257.0" cy="293.9" r="0.9" fill="#d1d9e0"/><circle cx="255.8" cy="293.9" r="0.9" fill="#d1d9e0"/><circle cx="254.6" cy="293.8" r="0.9" fill="#d1d9e0"/><circle cx="253.4" cy="293.7" r="0.9" fill="#d1d9e0"/><line class="s" style="animation-delay:416ms" x1="252.4" y1="291.6" x2="249.2" y2="322.0" stroke="#2962db" stroke-width="1.7" stroke-linecap="round"/><circle cx="251.1" cy="293.5" r="0.9" fill="#d1d9e0"/><circle cx="249.9" cy="293.3" r="0.9" fill="#d1d9e0"/><line class="s" style="animation-delay:422ms" x1="249.0" y1="291.2" x2="245.2" y2="315.4" stroke="#2264db" stroke-width="1.7" stroke-linecap="round"/><line class="s" style="animation-delay:425ms" x1="247.8" y1="291.0" x2="245.4" y2="305.0" stroke="#1566db" stroke-width="1.7" stroke-linecap="round"/><line class="s" style="animation-delay:427ms" x1="246.7" y1="290.8" x2="244.1" y2="304.8" stroke="#1566db" stroke-width="1.7" stroke-linecap="round"/><line class="s" style="animation-delay:429ms" x1="245.6" y1="290.5" x2="235.7" y2="338.7" stroke="#405edc" stroke-width="1.7" stroke-linecap="round"/><circle cx="244.0" cy="292.2" r="0.9" fill="#d1d9e0"/><circle cx="242.8" cy="292.0" r="0.9" fill="#d1d9e0"/><circle cx="241.7" cy="291.7" r="0.9" fill="#d1d9e0"/><circle cx="240.5" cy="291.4" r="0.9" fill="#d1d9e0"/><circle cx="239.3" cy="291.1" r="0.9" fill="#d1d9e0"/><line class="s" style="animation-delay:442ms" x1="238.8" y1="288.8" x2="234.6" y2="302.5" stroke="#1566db" stroke-width="1.7" stroke-linecap="round"/><circle cx="237.1" cy="290.4" r="0.9" fill="#d1d9e0"/><line class="s" style="animation-delay:447ms" x1="236.6" y1="288.1" x2="231.9" y2="301.6" stroke="#1566db" stroke-width="1.7" stroke-linecap="round"/><line class="s" style="animation-delay:449ms" x1="235.5" y1="287.7" x2="227.1" y2="310.8" stroke="#2264db" stroke-width="1.7" stroke-linecap="round"/><circle cx="233.7" cy="289.2" r="0.9" fill="#d1d9e0"/><line class="s" style="animation-delay:453ms" x1="233.3" y1="286.9" x2="228.0" y2="300.1" stroke="#1566db" stroke-width="1.7" stroke-linecap="round"/><line class="s" style="animation-delay:455ms" x1="232.2" y1="286.4" x2="221.5" y2="312.1" stroke="#2663db" stroke-width="1.7" stroke-linecap="round"/><line class="s" style="animation-delay:458ms" x1="231.2" y1="286.0" x2="223.0" y2="304.6" stroke="#1d65db" stroke-width="1.7" stroke-linecap="round"/><circle cx="229.3" cy="287.3" r="0.9" fill="#d1d9e0"/><line class="s" style="animation-delay:462ms" x1="229.0" y1="285.0" x2="222.9" y2="297.9" stroke="#1566db" stroke-width="1.7" stroke-linecap="round"/><circle cx="227.1" cy="286.3" r="0.9" fill="#d1d9e0"/><circle cx="226.0" cy="285.7" r="0.9" fill="#d1d9e0"/><circle cx="225.0" cy="285.2" r="0.9" fill="#d1d9e0"/><line class="s" style="animation-delay:471ms" x1="224.9" y1="282.9" x2="212.9" y2="304.3" stroke="#2264db" stroke-width="1.7" stroke-linecap="round"/><line class="s" style="animation-delay:473ms" x1="223.9" y1="282.3" x2="201.3" y2="321.3" stroke="#3b5fdc" stroke-width="1.7" stroke-linecap="round"/><line class="s" style="animation-delay:475ms" x1="222.9" y1="281.7" x2="215.5" y2="293.9" stroke="#1566db" stroke-width="1.7" stroke-linecap="round"/><line class="s" style="animation-delay:477ms" x1="221.9" y1="281.1" x2="201.7" y2="313.5" stroke="#3260dc" stroke-width="1.7" stroke-linecap="round"/><line class="s" style="animation-delay:480ms" x1="220.9" y1="280.5" x2="204.3" y2="306.2" stroke="#2962db" stroke-width="1.7" stroke-linecap="round"/><line class="s" style="animation-delay:482ms" x1="219.9" y1="279.8" x2="201.7" y2="307.1" stroke="#2c62db" stroke-width="1.7" stroke-linecap="round"/><line class="s" style="animation-delay:484ms" x1="219.0" y1="279.2" x2="201.6" y2="304.3" stroke="#2962db" stroke-width="1.7" stroke-linecap="round"/><line class="s" style="animation-delay:486ms" x1="218.0" y1="278.5" x2="200.2" y2="303.4" stroke="#2962db" stroke-width="1.7" stroke-linecap="round"/><circle cx="215.9" cy="279.4" r="0.9" fill="#d1d9e0"/><line class="s" style="animation-delay:491ms" x1="216.2" y1="277.1" x2="199.2" y2="299.2" stroke="#2663db" stroke-width="1.7" stroke-linecap="round"/><line class="s" style="animation-delay:493ms" x1="215.2" y1="276.4" x2="206.4" y2="287.6" stroke="#1566db" stroke-width="1.7" stroke-linecap="round"/><circle cx="213.1" cy="277.2" r="0.9" fill="#d1d9e0"/><circle cx="212.2" cy="276.5" r="0.9" fill="#d1d9e0"/><line class="s" style="animation-delay:499ms" x1="212.6" y1="274.2" x2="203.2" y2="284.9" stroke="#1566db" stroke-width="1.7" stroke-linecap="round"/><line class="s" style="animation-delay:502ms" x1="211.7" y1="273.4" x2="180.8" y2="307.5" stroke="#3c5edc" stroke-width="1.7" stroke-linecap="round"/><circle cx="209.5" cy="274.1" r="0.9" fill="#d1d9e0"/><circle cx="208.6" cy="273.2" r="0.9" fill="#d1d9e0"/><circle cx="207.8" cy="272.4" r="0.9" fill="#d1d9e0"/><circle cx="206.9" cy="271.6" r="0.9" fill="#d1d9e0"/><circle cx="206.1" cy="270.7" r="0.9" fill="#d1d9e0"/><line class="s" style="animation-delay:515ms" x1="206.8" y1="268.5" x2="196.2" y2="278.1" stroke="#1566db" stroke-width="1.7" stroke-linecap="round"/><circle cx="204.5" cy="268.9" r="0.9" fill="#d1d9e0"/><circle cx="203.7" cy="268.0" r="0.9" fill="#d1d9e0"/><line class="s" style="animation-delay:521ms" x1="204.5" y1="265.8" x2="193.5" y2="274.9" stroke="#1566db" stroke-width="1.7" stroke-linecap="round"/><circle cx="202.2" cy="266.2" r="0.9" fill="#d1d9e0"/><circle cx="201.4" cy="265.2" r="0.9" fill="#d1d9e0"/><circle cx="200.7" cy="264.3" r="0.9" fill="#d1d9e0"/><circle cx="200.0" cy="263.3" r="0.9" fill="#d1d9e0"/><circle cx="199.3" cy="262.3" r="0.9" fill="#d1d9e0"/><circle cx="198.6" cy="261.4" r="0.9" fill="#d1d9e0"/><circle cx="198.0" cy="260.4" r="0.9" fill="#d1d9e0"/><circle cx="197.3" cy="259.3" r="0.9" fill="#d1d9e0"/><circle cx="196.7" cy="258.3" r="0.9" fill="#d1d9e0"/><circle cx="196.1" cy="257.3" r="0.9" fill="#d1d9e0"/><circle cx="195.5" cy="256.3" r="0.9" fill="#d1d9e0"/><circle cx="194.9" cy="255.2" r="0.9" fill="#d1d9e0"/><circle cx="194.4" cy="254.2" r="0.9" fill="#d1d9e0"/><circle cx="193.8" cy="253.1" r="0.9" fill="#d1d9e0"/><circle cx="193.3" cy="252.0" r="0.9" fill="#d1d9e0"/><circle cx="192.8" cy="250.9" r="0.9" fill="#d1d9e0"/><line class="s" style="animation-delay:559ms" x1="194.1" y1="249.0" x2="175.5" y2="257.2" stroke="#1d65db" stroke-width="1.7" stroke-linecap="round"/><line class="s" style="animation-delay:561ms" x1="193.7" y1="248.0" x2="171.0" y2="257.5" stroke="#2264db" stroke-width="1.7" stroke-linecap="round"/><circle cx="191.4" cy="247.6" r="0.9" fill="#d1d9e0"/><line class="s" style="animation-delay:565ms" x1="192.8" y1="245.8" x2="158.6" y2="258.9" stroke="#3061dc" stroke-width="1.7" stroke-linecap="round"/><circle cx="190.5" cy="245.4" r="0.9" fill="#d1d9e0"/><line class="s" style="animation-delay:570ms" x1="192.0" y1="243.6" x2="157.4" y2="255.6" stroke="#3061dc" stroke-width="1.7" stroke-linecap="round"/><line class="s" style="animation-delay:572ms" x1="191.6" y1="242.5" x2="151.7" y2="255.7" stroke="#375fdc" stroke-width="1.7" stroke-linecap="round"/><line class="s" style="animation-delay:574ms" x1="191.3" y1="241.4" x2="156.3" y2="252.3" stroke="#3061dc" stroke-width="1.7" stroke-linecap="round"/><line class="s" style="animation-delay:576ms" x1="190.9" y1="240.3" x2="159.4" y2="249.6" stroke="#2c62db" stroke-width="1.7" stroke-linecap="round"/><line class="s" style="animation-delay:579ms" x1="190.6" y1="239.2" x2="155.3" y2="248.9" stroke="#3061dc" stroke-width="1.7" stroke-linecap="round"/><circle cx="188.4" cy="238.6" r="0.9" fill="#d1d9e0"/><line class="s" style="animation-delay:583ms" x1="190.0" y1="236.9" x2="149.1" y2="246.8" stroke="#375fdc" stroke-width="1.7" stroke-linecap="round"/><line class="s" style="animation-delay:585ms" x1="189.8" y1="235.8" x2="133.2" y2="248.5" stroke="#4a5cdd" stroke-width="1.7" stroke-linecap="round"/><line class="s" style="animation-delay:587ms" x1="189.5" y1="234.7" x2="122.5" y2="248.6" stroke="#5759dd" stroke-width="1.7" stroke-linecap="round"/><line class="s" style="animation-delay:590ms" x1="189.3" y1="233.5" x2="125.2" y2="245.8" stroke="#535add" stroke-width="1.7" stroke-linecap="round"/><line class="s" style="animation-delay:592ms" x1="189.1" y1="232.4" x2="135.4" y2="241.7" stroke="#465cdd" stroke-width="1.7" stroke-linecap="round"/><line class="s" style="animation-delay:594ms" x1="188.9" y1="231.2" x2="124.2" y2="241.4" stroke="#535add" stroke-width="1.7" stroke-linecap="round"/><line class="s" style="animation-delay:596ms" x1="188.7" y1="230.1" x2="116.4" y2="240.3" stroke="#5d58dd" stroke-width="1.7" stroke-linecap="round"/><line class="s" style="animation-delay:598ms" x1="188.6" y1="228.9" x2="122.5" y2="237.2" stroke="#5559dd" stroke-width="1.7" stroke-linecap="round"/><line class="s" style="animation-delay:601ms" x1="188.4" y1="227.8" x2="122.2" y2="235.0" stroke="#5559dd" stroke-width="1.7" stroke-linecap="round"/><line class="s" style="animation-delay:603ms" x1="188.3" y1="226.6" x2="123.4" y2="232.6" stroke="#535add" stroke-width="1.7" stroke-linecap="round"/><line class="s" style="animation-delay:605ms" x1="188.2" y1="225.5" x2="131.2" y2="229.8" stroke="#495cdd" stroke-width="1.7" stroke-linecap="round"/><line class="s" style="animation-delay:607ms" x1="188.1" y1="224.3" x2="129.5" y2="227.8" stroke="#4b5bdd" stroke-width="1.7" stroke-linecap="round"/><line class="s" style="animation-delay:609ms" x1="188.1" y1="223.1" x2="117.2" y2="226.2" stroke="#5a58dd" stroke-width="1.7" stroke-linecap="round"/><line class="s" style="animation-delay:612ms" x1="188.0" y1="222.0" x2="129.3" y2="223.6" stroke="#4b5bdd" stroke-width="1.7" stroke-linecap="round"/><line class="s" style="animation-delay:614ms" x1="188.0" y1="220.8" x2="140.3" y2="221.3" stroke="#3e5edc" stroke-width="1.7" stroke-linecap="round"/><line class="s" style="animation-delay:616ms" x1="188.0" y1="219.6" x2="134.6" y2="219.4" stroke="#455ddc" stroke-width="1.7" stroke-linecap="round"/><circle cx="186.0" cy="218.4" r="0.9" fill="#d1d9e0"/><line class="s" style="animation-delay:620ms" x1="188.1" y1="217.3" x2="157.5" y2="216.2" stroke="#2962db" stroke-width="1.7" stroke-linecap="round"/><line class="s" style="animation-delay:623ms" x1="188.1" y1="216.1" x2="148.6" y2="214.0" stroke="#3460dc" stroke-width="1.7" stroke-linecap="round"/><circle cx="186.2" cy="214.8" r="0.9" fill="#d1d9e0"/><circle cx="186.3" cy="213.7" r="0.9" fill="#d1d9e0"/><circle cx="186.4" cy="212.5" r="0.9" fill="#d1d9e0"/><circle cx="186.5" cy="211.3" r="0.9" fill="#d1d9e0"/><line class="s" style="animation-delay:634ms" x1="188.6" y1="210.4" x2="168.5" y2="207.6" stroke="#1d65db" stroke-width="1.7" stroke-linecap="round"/><line class="s" style="animation-delay:636ms" x1="188.8" y1="209.2" x2="141.7" y2="202.1" stroke="#3e5edc" stroke-width="1.7" stroke-linecap="round"/><line class="s" style="animation-delay:638ms" x1="189.0" y1="208.1" x2="123.3" y2="197.0" stroke="#5559dd" stroke-width="1.7" stroke-linecap="round"/><line class="s" style="animation-delay:640ms" x1="189.2" y1="206.9" x2="131.8" y2="196.3" stroke="#4b5bdd" stroke-width="1.7" stroke-linecap="round"/><line class="s" style="animation-delay:642ms" x1="189.4" y1="205.8" x2="124.4" y2="192.6" stroke="#5459dd" stroke-width="1.7" stroke-linecap="round"/><line class="s" style="animation-delay:645ms" x1="189.7" y1="204.6" x2="159.8" y2="198.1" stroke="#2962db" stroke-width="1.7" stroke-linecap="round"/><line class="s" style="animation-delay:647ms" x1="189.9" y1="203.5" x2="140.1" y2="191.8" stroke="#425ddc" stroke-width="1.7" stroke-linecap="round"/><line class="s" style="animation-delay:649ms" x1="190.2" y1="202.4" x2="147.4" y2="191.5" stroke="#3a5fdc" stroke-width="1.7" stroke-linecap="round"/><line class="s" style="animation-delay:651ms" x1="190.5" y1="201.2" x2="153.6" y2="191.3" stroke="#3260dc" stroke-width="1.7" stroke-linecap="round"/><line class="s" style="animation-delay:653ms" x1="190.8" y1="200.1" x2="171.3" y2="194.5" stroke="#1d65db" stroke-width="1.7" stroke-linecap="round"/><line class="s" style="animation-delay:656ms" x1="191.1" y1="199.0" x2="171.7" y2="193.1" stroke="#1d65db" stroke-width="1.7" stroke-linecap="round"/><circle cx="189.6" cy="197.3" r="0.9" fill="#d1d9e0"/><line class="s" style="animation-delay:660ms" x1="191.8" y1="196.8" x2="160.7" y2="186.2" stroke="#2c62db" stroke-width="1.7" stroke-linecap="round"/><line class="s" style="animation-delay:662ms" x1="192.2" y1="195.7" x2="139.6" y2="176.8" stroke="#485cdd" stroke-width="1.7" stroke-linecap="round"/><line class="s" style="animation-delay:664ms" x1="192.6" y1="194.6" x2="137.3" y2="173.7" stroke="#4c5bdd" stroke-width="1.7" stroke-linecap="round"/><circle cx="191.2" cy="192.8" r="0.9" fill="#d1d9e0"/><line class="s" style="animation-delay:669ms" x1="193.5" y1="192.4" x2="158.2" y2="177.8" stroke="#3260dc" stroke-width="1.7" stroke-linecap="round"/><line class="s" style="animation-delay:671ms" x1="193.9" y1="191.4" x2="155.4" y2="174.6" stroke="#375fdc" stroke-width="1.7" stroke-linecap="round"/><line class="s" style="animation-delay:673ms" x1="194.4" y1="190.3" x2="169.0" y2="178.8" stroke="#2663db" stroke-width="1.7" stroke-linecap="round"/><line class="s" style="animation-delay:675ms" x1="194.9" y1="189.2" x2="172.7" y2="178.7" stroke="#2264db" stroke-width="1.7" stroke-linecap="round"/><line class="s" style="animation-delay:678ms" x1="195.4" y1="188.2" x2="182.6" y2="181.9" stroke="#1566db" stroke-width="1.7" stroke-linecap="round"/><line class="s" style="animation-delay:680ms" x1="195.9" y1="187.2" x2="149.9" y2="163.5" stroke="#435ddc" stroke-width="1.7" stroke-linecap="round"/><line class="s" style="animation-delay:682ms" x1="196.5" y1="186.1" x2="169.5" y2="171.7" stroke="#2962db" stroke-width="1.7" stroke-linecap="round"/><line class="s" style="animation-delay:684ms" x1="197.0" y1="185.1" x2="184.5" y2="178.2" stroke="#1566db" stroke-width="1.7" stroke-linecap="round"/><line class="s" style="animation-delay:686ms" x1="197.6" y1="184.1" x2="180.0" y2="174.0" stroke="#1d65db" stroke-width="1.7" stroke-linecap="round"/><line class="s" style="animation-delay:689ms" x1="198.2" y1="183.1" x2="163.1" y2="162.1" stroke="#3660dc" stroke-width="1.7" stroke-linecap="round"/><circle cx="197.1" cy="181.0" r="0.9" fill="#d1d9e0"/><line class="s" style="animation-delay:693ms" x1="199.4" y1="181.1" x2="182.3" y2="170.1" stroke="#1d65db" stroke-width="1.7" stroke-linecap="round"/><line class="s" style="animation-delay:695ms" x1="200.0" y1="180.1" x2="158.0" y2="152.2" stroke="#415ddc" stroke-width="1.7" stroke-linecap="round"/><line class="s" style="animation-delay:697ms" x1="200.7" y1="179.2" x2="154.3" y2="147.2" stroke="#485cdd" stroke-width="1.7" stroke-linecap="round"/><line class="s" style="animation-delay:700ms" x1="201.4" y1="178.2" x2="156.6" y2="146.3" stroke="#475cdd" stroke-width="1.7" stroke-linecap="round"/><line class="s" style="animation-delay:702ms" x1="202.0" y1="177.3" x2="175.6" y2="157.8" stroke="#2c62db" stroke-width="1.7" stroke-linecap="round"/><line class="s" style="animation-delay:704ms" x1="202.7" y1="176.3" x2="151.3" y2="137.1" stroke="#525add" stroke-width="1.7" stroke-linecap="round"/><line class="s" style="animation-delay:706ms" x1="203.5" y1="175.4" x2="155.2" y2="137.4" stroke="#4e5bdd" stroke-width="1.7" stroke-linecap="round"/><line class="s" style="animation-delay:708ms" x1="204.2" y1="174.5" x2="163.2" y2="141.1" stroke="#445ddc" stroke-width="1.7" stroke-linecap="round"/><line class="s" style="animation-delay:711ms" x1="204.9" y1="173.6" x2="157.9" y2="134.0" stroke="#4e5bdd" stroke-width="1.7" stroke-linecap="round"/><line class="s" style="animation-delay:713ms" x1="205.7" y1="172.7" x2="164.6" y2="137.0" stroke="#465cdd" stroke-width="1.7" stroke-linecap="round"/><line class="s" style="animation-delay:715ms" x1="206.5" y1="171.9" x2="188.2" y2="155.4" stroke="#2264db" stroke-width="1.7" stroke-linecap="round"/><line class="s" style="animation-delay:717ms" x1="207.2" y1="171.0" x2="170.7" y2="137.1" stroke="#405edc" stroke-width="1.7" stroke-linecap="round"/><line class="s" style="animation-delay:719ms" x1="208.0" y1="170.2" x2="197.7" y2="160.3" stroke="#1566db" stroke-width="1.7" stroke-linecap="round"/><line class="s" style="animation-delay:722ms" x1="208.9" y1="169.3" x2="198.7" y2="159.3" stroke="#1566db" stroke-width="1.7" stroke-linecap="round"/><circle cx="208.3" cy="167.1" r="0.9" fill="#d1d9e0"/><circle cx="209.1" cy="166.2" r="0.9" fill="#d1d9e0"/><circle cx="210.0" cy="165.4" r="0.9" fill="#d1d9e0"/><circle cx="210.9" cy="164.6" r="0.9" fill="#d1d9e0"/><circle cx="211.8" cy="163.8" r="0.9" fill="#d1d9e0"/><line class="s" style="animation-delay:735ms" x1="214.0" y1="164.6" x2="173.6" y2="116.0" stroke="#515add" stroke-width="1.7" stroke-linecap="round"/><line class="s" style="animation-delay:737ms" x1="214.9" y1="163.9" x2="176.2" y2="115.7" stroke="#4f5bdd" stroke-width="1.7" stroke-linecap="round"/><line class="s" style="animation-delay:739ms" x1="215.8" y1="163.2" x2="185.2" y2="123.8" stroke="#405edc" stroke-width="1.7" stroke-linecap="round"/><line class="s" style="animation-delay:741ms" x1="216.7" y1="162.4" x2="184.3" y2="119.3" stroke="#455ddc" stroke-width="1.7" stroke-linecap="round"/><line class="s" style="animation-delay:744ms" x1="217.7" y1="161.8" x2="178.4" y2="107.7" stroke="#5559dd" stroke-width="1.7" stroke-linecap="round"/><line class="s" style="animation-delay:746ms" x1="218.6" y1="161.1" x2="175.6" y2="99.8" stroke="#5f57de" stroke-width="1.7" stroke-linecap="round"/><line class="s" style="animation-delay:748ms" x1="219.6" y1="160.4" x2="186.4" y2="111.5" stroke="#4c5bdd" stroke-width="1.7" stroke-linecap="round"/><line class="s" style="animation-delay:750ms" x1="220.5" y1="159.8" x2="186.7" y2="108.1" stroke="#4f5bdd" stroke-width="1.7" stroke-linecap="round"/><line class="s" style="animation-delay:752ms" x1="221.5" y1="159.1" x2="176.9" y2="88.5" stroke="#6955de" stroke-width="1.7" stroke-linecap="round"/><line class="s" style="animation-delay:755ms" x1="222.5" y1="158.5" x2="188.9" y2="103.5" stroke="#525add" stroke-width="1.7" stroke-linecap="round"/><line class="s" style="animation-delay:757ms" x1="223.5" y1="157.9" x2="208.0" y2="131.6" stroke="#2962db" stroke-width="1.7" stroke-linecap="round"/><circle cx="223.5" cy="155.6" r="0.9" fill="#d1d9e0"/><line class="s" style="animation-delay:761ms" x1="225.5" y1="156.8" x2="190.5" y2="92.5" stroke="#5d58dd" stroke-width="1.7" stroke-linecap="round"/><line class="s" style="animation-delay:763ms" x1="226.6" y1="156.2" x2="190.4" y2="87.3" stroke="#6257de" stroke-width="1.7" stroke-linecap="round"/><line class="s" style="animation-delay:766ms" x1="227.6" y1="155.7" x2="221.2" y2="142.9" stroke="#1566db" stroke-width="1.7" stroke-linecap="round"/><line class="s" style="animation-delay:768ms" x1="228.6" y1="155.2" x2="214.3" y2="125.6" stroke="#2c62db" stroke-width="1.7" stroke-linecap="round"/><line class="s" style="animation-delay:770ms" x1="229.7" y1="154.7" x2="211.5" y2="115.5" stroke="#385fdc" stroke-width="1.7" stroke-linecap="round"/><line class="s" style="animation-delay:772ms" x1="230.8" y1="154.2" x2="201.2" y2="87.7" stroke="#5c58dd" stroke-width="1.7" stroke-linecap="round"/><line class="s" style="animation-delay:774ms" x1="231.8" y1="153.7" x2="196.1" y2="69.7" stroke="#7353de" stroke-width="1.7" stroke-linecap="round"/><line class="s" style="animation-delay:777ms" x1="232.9" y1="153.3" x2="193.7" y2="56.9" stroke="#8250df" stroke-width="1.7" stroke-linecap="round"/><line class="s" style="animation-delay:779ms" x1="234.0" y1="152.9" x2="202.3" y2="71.1" stroke="#6e54de" stroke-width="1.7" stroke-linecap="round"/><line class="s" style="animation-delay:781ms" x1="235.1" y1="152.5" x2="210.9" y2="87.0" stroke="#5959dd" stroke-width="1.7" stroke-linecap="round"/><line class="s" style="animation-delay:783ms" x1="236.2" y1="152.1" x2="231.4" y2="138.6" stroke="#1566db" stroke-width="1.7" stroke-linecap="round"/><line class="s" style="animation-delay:785ms" x1="237.3" y1="151.7" x2="232.8" y2="138.1" stroke="#1566db" stroke-width="1.7" stroke-linecap="round"/><line class="s" style="animation-delay:788ms" x1="238.4" y1="151.3" x2="234.1" y2="137.7" stroke="#1566db" stroke-width="1.7" stroke-linecap="round"/><line class="s" style="animation-delay:790ms" x1="239.5" y1="151.0" x2="235.4" y2="137.3" stroke="#1566db" stroke-width="1.7" stroke-linecap="round"/><line class="s" style="animation-delay:792ms" x1="240.6" y1="150.7" x2="216.9" y2="66.0" stroke="#6f54de" stroke-width="1.7" stroke-linecap="round"/><line class="s" style="animation-delay:794ms" x1="241.7" y1="150.4" x2="218.5" y2="61.8" stroke="#7353de" stroke-width="1.7" stroke-linecap="round"/><line class="s" style="animation-delay:796ms" x1="242.9" y1="150.1" x2="239.5" y2="136.2" stroke="#1566db" stroke-width="1.7" stroke-linecap="round"/><line class="s" style="animation-delay:799ms" x1="244.0" y1="149.8" x2="235.8" y2="114.1" stroke="#3061dc" stroke-width="1.7" stroke-linecap="round"/><circle cx="244.7" cy="147.6" r="0.9" fill="#d1d9e0"/>
<line x1="353.5" y1="72.1" x2="356.7" y2="67.0" stroke="#59636e" stroke-width="1"/><text x="362.1" y="58.6" class="m" text-anchor="middle" dominant-baseline="middle">Nov</text><line x1="411.7" y1="132.7" x2="416.9" y2="129.7" stroke="#59636e" stroke-width="1"/><text x="425.5" y="124.7" class="m" text-anchor="middle" dominant-baseline="middle">Dec</text><line x1="435.0" y1="216.3" x2="441.0" y2="216.2" stroke="#59636e" stroke-width="1"/><text x="451.0" y="216.0" class="m" text-anchor="middle" dominant-baseline="middle">Jan</text><line x1="415.2" y1="300.8" x2="420.6" y2="303.6" stroke="#59636e" stroke-width="1"/><text x="429.4" y="308.2" class="m" text-anchor="middle" dominant-baseline="middle">Feb</text><line x1="364.3" y1="360.5" x2="367.9" y2="365.4" stroke="#59636e" stroke-width="1"/><text x="373.8" y="373.4" class="m" text-anchor="middle" dominant-baseline="middle">Mar</text><line x1="284.0" y1="393.4" x2="284.8" y2="399.3" stroke="#59636e" stroke-width="1"/><text x="286.2" y="409.2" class="m" text-anchor="middle" dominant-baseline="middle">Apr</text><line x1="200.4" y1="384.5" x2="198.4" y2="390.2" stroke="#59636e" stroke-width="1"/><text x="195.0" y="399.6" class="m" text-anchor="middle" dominant-baseline="middle">May</text><line x1="128.7" y1="335.7" x2="124.2" y2="339.7" stroke="#59636e" stroke-width="1"/><text x="116.7" y="346.3" class="m" text-anchor="middle" dominant-baseline="middle">Jun</text><line x1="89.9" y1="261.2" x2="84.1" y2="262.6" stroke="#59636e" stroke-width="1"/><text x="74.4" y="264.9" class="m" text-anchor="middle" dominant-baseline="middle">Jul</text><line x1="91.0" y1="174.4" x2="85.3" y2="172.8" stroke="#59636e" stroke-width="1"/><text x="75.6" y="170.2" class="m" text-anchor="middle" dominant-baseline="middle">Aug</text><line x1="133.7" y1="98.9" x2="129.4" y2="94.7" stroke="#59636e" stroke-width="1"/><text x="122.2" y="87.8" class="m" text-anchor="middle" dominant-baseline="middle">Sep</text>
<circle cx="294.0" cy="45.3" r="2" fill="#59636e"/>
<circle cx="223.2" cy="45.8" r="3.2" fill="#8250df"/>
<text x="220.3" y="32.1" class="today" text-anchor="end" dominant-baseline="middle">today</text>
<text x="260" y="216" class="cap" text-anchor="middle">THE LAST</text>
<text x="260" y="234" class="cap" text-anchor="middle">12 MONTHS</text>
</svg>